<svg width="180" height="180" viewBox="0 0 180 180" fill="none" xmlns="http://www.w3.org/2000/svg">
<path d="M90 174.375C136.599 174.375 174.375 136.599 174.375 90C174.375 43.401 136.599 5.625 90 5.625C43.401 5.625 5.625 43.401 5.625 90C5.625 136.599 43.401 174.375 90 174.375Z" fill="#4BC190"/>
<path opacity="0.3" d="M90 157.5C127.279 157.5 157.5 127.279 157.5 90C157.5 52.7208 127.279 22.5 90 22.5C52.7208 22.5 22.5 52.7208 22.5 90C22.5 127.279 52.7208 157.5 90 157.5Z" fill="#356CB6"/>
<path d="M43.7061 86.5828V64.575C43.7061 52.2971 48.5834 40.5221 57.2652 31.8404C65.9469 23.1586 77.7219 18.2813 89.9998 18.2812C102.278 18.2813 114.053 23.1586 122.734 31.8404C131.416 40.5221 136.294 52.2971 136.294 64.575V86.5828H43.7061Z" fill="#393C54"/>
<path d="M128.419 96.1312C134.577 96.1312 139.57 91.1385 139.57 84.9797C139.57 78.8208 134.577 73.8281 128.419 73.8281C122.26 73.8281 117.267 78.8208 117.267 84.9797C117.267 91.1385 122.26 96.1312 128.419 96.1312Z" fill="#FBA875"/>
<path d="M90 174.516C110.76 174.544 130.796 166.89 146.25 153.028L142.889 145.041C140.484 139.416 134.142 135.703 127.012 135.703H53.0016C45.8719 135.703 39.5297 139.444 37.125 145.041L33.75 153.028C49.2036 166.89 69.24 174.544 90 174.516Z" fill="white"/>
<path d="M114.918 138.164C114.854 137.062 114.368 136.028 113.562 135.274C112.756 134.52 111.691 134.105 110.587 134.114H69.4122C68.2981 134.109 67.2253 134.535 66.418 135.303C65.6108 136.071 65.1317 137.121 65.0809 138.234C65.0809 138.389 65.0809 138.53 65.0809 138.684C64.8419 148.978 79.8747 162.084 79.8747 162.084L89.9997 151.945L100.083 162.028C100.083 162.028 114.933 149.372 114.933 139.219C114.933 138.853 114.933 138.502 114.918 138.164Z" fill="white"/>
<path d="M90 119.18V138.516" stroke="#FBA875" stroke-width="20" stroke-miterlimit="10" stroke-linecap="round"/>
<path d="M51.5813 96.1312C57.7401 96.1312 62.7328 91.1385 62.7328 84.9797C62.7328 78.8208 57.7401 73.8281 51.5813 73.8281C45.4224 73.8281 40.4297 78.8208 40.4297 84.9797C40.4297 91.1385 45.4224 96.1312 51.5813 96.1312Z" fill="#FBA875"/>
<path d="M90.0003 132.708C84.7699 132.71 79.5904 131.681 74.7577 129.68C69.9251 127.679 65.5341 124.746 61.8356 121.047C58.1372 117.349 55.2038 112.958 53.203 108.125C51.2023 103.293 50.1734 98.1132 50.1753 92.8828V66.6984C50.1753 56.1362 54.3711 46.0065 61.8398 38.5379C69.3084 31.0692 79.438 26.8734 90.0003 26.8734C100.563 26.8734 110.692 31.0692 118.161 38.5379C125.629 46.0065 129.825 56.1362 129.825 66.6984V92.8828C129.827 98.1132 128.798 103.293 126.798 108.125C124.797 112.958 121.863 117.349 118.165 121.047C114.466 124.746 110.075 127.679 105.243 129.68C100.41 131.681 95.2307 132.71 90.0003 132.708Z" fill="#FFBB94"/>
<path d="M107.817 87.5813C110.147 87.5813 112.036 85.6925 112.036 83.3625C112.036 81.0326 110.147 79.1438 107.817 79.1438C105.487 79.1438 103.599 81.0326 103.599 83.3625C103.599 85.6925 105.487 87.5813 107.817 87.5813Z" fill="#393C54"/>
<path d="M69.8486 87.5813C72.1786 87.5813 74.0674 85.6925 74.0674 83.3625C74.0674 81.0326 72.1786 79.1438 69.8486 79.1438C67.5187 79.1438 65.6299 81.0326 65.6299 83.3625C65.6299 85.6925 67.5187 87.5813 69.8486 87.5813Z" fill="#393C54"/>
<path opacity="0.4" d="M104.611 74.5312L118.125 74.1797" stroke="#515570" stroke-width="2" stroke-linecap="round" stroke-linejoin="round"/>
<path opacity="0.4" d="M74.5312 74.5312L61.0171 74.1797" stroke="#515570" stroke-width="2" stroke-linecap="round" stroke-linejoin="round"/>
<path d="M100.617 104.062C100.803 104.073 100.985 104.121 101.153 104.202C101.32 104.284 101.47 104.398 101.593 104.538C101.716 104.678 101.81 104.841 101.869 105.018C101.929 105.195 101.952 105.381 101.939 105.567C101.591 108.493 100.182 111.189 97.9789 113.145C95.776 115.101 92.9321 116.182 89.9859 116.182C87.0398 116.182 84.1959 115.101 81.993 113.145C79.79 111.189 78.381 108.493 78.0328 105.567C78.0195 105.379 78.0441 105.19 78.1053 105.012C78.1665 104.833 78.2629 104.669 78.3888 104.529C78.5148 104.388 78.6677 104.275 78.8384 104.195C79.0092 104.114 79.1943 104.07 79.3828 104.062H100.617Z" fill="#393C54"/>
<path opacity="0.4" d="M84.375 120.938H95.625" stroke="#515570" stroke-width="2" stroke-linecap="round" stroke-linejoin="round"/>
<path d="M89.0859 85.4297V94.5703" stroke="#FBA875" stroke-width="4" stroke-miterlimit="10" stroke-linecap="round"/>
<path d="M92.8125 95.625H85.7812" stroke="#FBA875" stroke-width="4" stroke-miterlimit="10" stroke-linecap="round"/>
<path d="M82.9688 113.78C85.0242 115.288 87.507 116.101 90.0563 116.101C92.6055 116.101 95.0884 115.288 97.1438 113.78C96.4342 112.525 95.4041 111.481 94.1589 110.754C92.9136 110.028 91.4979 109.645 90.0563 109.645C88.6146 109.645 87.1989 110.028 85.9536 110.754C84.7084 111.481 83.6784 112.525 82.9688 113.78Z" fill="#F85565"/>
<path d="M97.0313 106.875H82.9688C82.6225 106.856 82.2835 106.767 81.9721 106.614C81.6608 106.461 81.3834 106.247 81.1564 105.984C80.9295 105.722 80.7576 105.417 80.651 105.086C80.5444 104.756 80.5053 104.408 80.536 104.062H99.5204C99.5512 104.413 99.5103 104.765 99.4003 105.099C99.2903 105.433 99.1134 105.741 98.8805 106.004C98.6476 106.267 98.3635 106.48 98.0456 106.63C97.7277 106.78 97.3826 106.863 97.0313 106.875Z" fill="white"/>
<path d="M90 23.6953C78.8112 23.6953 68.0806 28.1401 60.1689 36.0517C52.2572 43.9634 47.8125 54.694 47.8125 65.8828V74.5313C49.3043 74.5313 50.7351 73.9386 51.79 72.8837C52.8449 71.8288 53.4375 70.3981 53.4375 68.9063V58.4438C53.4375 56.8848 54.0568 55.3897 55.1592 54.2873C56.2615 53.1849 57.7566 52.5656 59.3156 52.5656H69.6656C75.2064 57.6302 82.4961 60.3474 90 60.1453C97.4798 60.3291 104.741 57.6131 110.264 52.5656H120.614C121.392 52.5563 122.164 52.7015 122.885 52.9927C123.606 53.284 124.263 53.7155 124.816 54.2622C125.369 54.809 125.809 55.4601 126.108 56.1779C126.408 56.8957 126.563 57.6659 126.562 58.4438V68.7797C126.562 70.2715 127.155 71.7023 128.21 72.7572C129.265 73.8121 130.696 74.4047 132.188 74.4047V65.8688C132.184 54.6824 127.737 43.9554 119.826 36.0468C111.915 28.1381 101.186 23.6953 90 23.6953Z" fill="#515570"/>
<path d="M84.6001 174.178C86.386 174.291 88.186 174.375 90.0001 174.375C91.8142 174.375 93.6141 174.291 95.4001 174.178L94.2188 161.719H85.7813L84.6001 174.178Z" fill="#393C54"/>
<path opacity="0.1" d="M73.3921 44.8171C77.9211 48.9503 83.8701 51.1768 89.9999 51.0328C96.1297 51.1768 102.079 48.9503 106.608 44.8171H117.267" stroke="white" stroke-width="3.28" stroke-miterlimit="10" stroke-linecap="round"/>
<path d="M90.8159 164.841H88.9597C87.2515 164.841 85.6133 164.162 84.4055 162.954C83.1976 161.746 82.519 160.108 82.519 158.4V151.875H97.2706V158.4C97.2706 159.247 97.1035 160.086 96.779 160.868C96.4544 161.65 95.9788 162.361 95.3792 162.959C94.7797 163.557 94.068 164.032 93.285 164.354C92.5019 164.677 91.6629 164.842 90.8159 164.841Z" fill="#515570"/>
<path d="M90 151.875L104.302 134.128H110.588L100.083 162.028L90 151.875Z" fill="white"/>
<path d="M90.0001 151.875L75.6985 134.128H69.4126L79.9173 162.028L90.0001 151.875Z" fill="white"/>
<path opacity="0.1" d="M114.918 138.164C114.854 137.062 114.368 136.028 113.562 135.274C112.756 134.52 111.691 134.105 110.587 134.114H104.301L89.9997 151.875L75.6981 134.114H69.4122C68.2994 134.106 67.2266 134.529 66.419 135.294C65.6114 136.06 65.1318 137.109 65.0809 138.22C65.0809 138.375 65.0809 138.516 65.0809 138.67C64.8419 148.964 79.8747 162.07 79.8747 162.07L89.9997 151.945L100.083 162.028C100.083 162.028 114.933 149.372 114.933 139.219C114.933 138.853 114.933 138.502 114.918 138.164Z" fill="#356CB6"/>
</svg>
