<svg enable-background="new 0 0 1000 1000" viewBox="0 0 1000 1000" xmlns="http://www.w3.org/2000/svg" xmlns:xlink="http://www.w3.org/1999/xlink"><linearGradient id="a" gradientUnits="userSpaceOnUse" x1="322.8072" x2="477.0643" y1="669.4766" y2="615.4532"><stop offset=".09327463" stop-color="#ff8415"/><stop offset="1" stop-color="#dc3701"/></linearGradient><path d="m418.1 315.2c2.5 4 1.3 9.4-2.7 11.9l-37 23.1c-4 2.5-9.4 1.3-11.9-2.7l-11.8-18.9c-2.5-4-1.3-9.4 2.7-11.9l37-23.1c4-2.5 9.4-1.3 11.9 2.7z" fill="#c9bede"/><path d="m399.4 292.3c-1.7-.1-3.5.3-5.1 1.3l-37 23.1c-1.5 1-2.7 2.3-3.3 3.9l12.5 2.6 23.7 4.9 6-23.5z" fill="#3a3f48"/><path d="m386 279.9-36.8 23.1 11.7 18.7.2.4 5.4 1.1 23.7 4.9 6.1-23.5 1.5-5.9-3.3-5.2z" fill="#247dff"/><path d="m360.8 305.9 21.5-13.7" fill="#fff" stroke="#fff" stroke-miterlimit="10" stroke-width=".8095"/><path d="m364.2 311.4 21.5-13.6" fill="#fff" stroke="#fff" stroke-miterlimit="10" stroke-width=".8095"/><path d="m367.6 317.4 21.5-13.7" fill="#fff" stroke="#fff" stroke-miterlimit="10" stroke-width=".8095"/><path d="m601.5 438.3s-47.4-43.6-9.2-63.8 220.9 3 178.9-82.3-146-98.2-146-98.2" style="fill:none;stroke:#a8c1ef;stroke-width:1.5;stroke-linecap:round;stroke-linejoin:round;stroke-miterlimit:10;stroke-dasharray:10.8185"/><path d="m607.9 195.3-48.1-17.1 44.7 25.2" fill="#e4f2ea" opacity=".7"/><path d="m611.1 183.9-4.3 10.1-26.3-11z" fill="#e4f2ea"/><path d="m611.1 183.9-4.3 10.1-26.3-11z" fill="#2c799b"/><path d="m559.8 178.2 42.6-5.2 8.7 10.9-30.6-.9 38 7.3 6.7 11.2z" fill="#78c2ea"/><path d="m559.8 178.2 44.7 25.2 3.4-8.1z" fill="#e4f2ea"/><path d="m559.8 178.2 44.7 25.2 3.4-8.1z" fill="#59a7c9"/><path d="m802.6 419.6c0 4.2-3.4 7.6-7.6 7.6h-76.4c-4.2 0-7.6-3.4-7.6-7.6v-17c0-4.2 3.4-7.6 7.6-7.6h76.4c4.2 0 7.6 3.4 7.6 7.6z" fill="#7ccfe0"/><circle cx="729" cy="411.1" fill="#fff" r="7.4"/><path d="m740.7 405.5h50.5v1.4h-50.5z" fill="#fff"/><path d="m740.7 410.2h29.4v1.4h-29.4z" fill="#fff"/><path d="m740.7 415.2h36.7v1.4h-36.7z" fill="#fff"/><path d="m571.8 438.4s68 58.3 71.8 53.8 11.6-107.8 11.6-107.8l24.5-3.6s18.7 127.5-10.4 162.4-86.5-57.2-86.5-57.2-21.4-27.4-16.6-33.8c4.7-6.2 5.6-13.8 5.6-13.8z" fill="#fda6c8"/><path d="m636.6 309.6 4.5 72.6c.2 3.7 3.3 6.5 7 6.4l24.8-.6c3.9-.1 6.9-3.3 6.7-7.2l-3.5-72.1c-.2-3.7-3.2-6.6-6.9-6.5l-25.8.1c-3.9.1-7.1 3.4-6.8 7.3z" fill="#6f47dd"/><path d="m648 389.4c-4 0-7.4-3.1-7.6-7.2l-4.5-72.6c-.1-2.1.6-4.1 2-5.7s3.4-2.4 5.5-2.4l25.8-.1c4.1 0 7.4 3.2 7.6 7.3l3.5 72.1c.1 2.1-.6 4.1-2 5.6s-3.3 2.4-5.4 2.4l-24.8.6zm21.3-86.4-25.9.1c-1.7 0-3.3.7-4.4 1.9-1.2 1.2-1.7 2.9-1.6 4.5l4.5 72.6c.2 3.3 2.9 5.8 6.2 5.7l24.8-.6c1.7 0 3.2-.7 4.3-1.9s1.7-2.8 1.6-4.5l-3.5-72.1c-.1-3.2-2.8-5.7-6-5.7z"/><circle cx="667.9" cy="309.9" r="2.2"/><path d="m668.9 331.8c-1.7 3.5 2.2 6.5 2.2 6.5s-4.1.4-4 3.7 2.9 5.1 2.9 5.1-2.8-.3-3.4 2.6c-.5 3 1.7 5.2 1.7 5.2s-2.6.3-2 4.2 8.9 9.9 12.7 9.2l1 14.5s4.1-14.7 4.1-15.3 2-2 .9-5.9c0 0 3.7-3.1.6-8.2 0 0 3.5-1.2-.2-8.1 0 0 3.2-.5.6-7.8-2.4-7.1-15.6-8.8-17.1-5.7z" fill="#fda6c8"/><path d="m682.2 754.1c-10.6 9-22.4 16.3-35 22.3-70.9 33.6-165.5 25-188.7 25-244.9-27.2-149.3-309.2-61.4-379.7 8.9-7.1 17.7-12.1 26.1-14.4 91.2-25.3 117.9 24 117.9 24l168.4 159.1c0-.1 42.6 104.5-27.3 163.7z" fill="#dc3701"/><path d="m647.2 776.4c-70.9 33.6-165.5 25-188.7 25-244.9-27.2-149.3-309.2-61.4-379.7 10.6 3.6 22.8 11 32 26.1 20.3 33.5 71.3 201.6 71.3 201.6s14.3 23.4 26.7 49.4c11.6 24.5 50.3 82.9 120.1 77.6z" fill="url(#a)"/><path d="m384.3 583.3 32.8-128.6s1.4-8 12.7-13.4c11.4-5.5 59.9-29.2 59.9-29.2h32s13 9.6 17.3 13.9c0 0 37.2.3 40.5 18.9l64.1 47.3 22.1 53.8z" fill="#4053f2"/><path d="m370.3 607.3s-1.8-32.1-1-36.5 16.5-17.3 37.7-20.1 21 15.3 21 15.3z" fill="#3b00bf"/><path d="m519.7 414.8c1 8.5 4.1 29.5 4.1 38.2 0 8.5-7.6 30.4-11.2 32.9-.1.1-.2.1-.3.2 0 0-19-7.3-21.5-54.3-1.7-31.4-3.6-45.3-4.6-51.1-.5-2.9-.8-3.8-.8-3.8l17.6-1.4 21.6 28c-.1.1-5.9 2.8-4.9 11.3z" fill="#fdb2d0"/><path d="m512.6 485.9c-.1.1-.2.1-.3.2 0 0-19-7.3-21.5-54.3-1.7-31.4-3.6-45.3-4.6-51.1l2-.4 14.2 8.7s-1.4 35 0 57.2c.9 14.4 6.4 30.4 10.2 39.7z" fill="#e079a8"/><path d="m523.7 539.6s-117.9 21.4-142.9 48.7-3.1 33.5 26.5 33.2 109.9-66.7 109.9-66.7l19.6 4.4 12.9-10.6s-21.2-9.9-26-9z" fill="#fda6c8"/><path d="m552.4 546.6-55.5 43 155 2.7 36-45.7z" fill="#050505"/><path d="m706.9 453.1-19 93.5h-135.5s15.2-83.9 17-97.5 9.2-11.4 9.2-11.4 9.4.3 23 .6c33.3.9 91.8 2.5 98.2 2.5 8.8 0 7.1 12.3 7.1 12.3z" fill="#c2d3ff"/><path d="m569.1 450.8-16.7 95.8h38.5l107.3-105.8c-34.7-.3-113-3.8-119.3-3.5-10 .3-9.8 13.5-9.8 13.5z" fill="#d7e3ff"/><ellipse cx="632.9" cy="497.7" fill="#f5f9ff" rx="10.6" ry="9.2" transform="matrix(.1248 -.9922 .9922 .1248 60.1485 1063.5105)"/><path d="m770.4 553.9c0 7.7-.4 112-35 156.8-16.6 33.5-43.8 90-46.6 105.1-.2.9-.2 1.6-.2 2.2 0 0-9.2-1.3-10.5 2.6 0 0-22.2-25.2-41-24.8 0 0 34.5-39.7 39.9-79.6 5.4-40 8.8-98.1 16.9-116.5 0 0-65 12-75.2 17.9l-12.8-28.2s.1-.1.4-.4c6.2-5.9 83.2-77.8 159.4-66.3 8.6 14.1 4.7 23.5 4.7 31.2z" fill="#100f51"/><path d="m688.8 815.8c-.2.9-.2 1.6-.2 2.2 0 0-9.2-1.3-10.5 2.6 0 0-22.2-25.2-41-24.8 0 0 4.8-5.5 11.1-14.5 3.6 2.7 7.2 5.3 10.8 7.6 9.6 6.3 18.9 12.7 27.6 18.7.8 2.9 1.5 5.7 2.2 8.2z" fill="#fdb2d0"/><path d="m682.3 775c-.5 9.9 1.8 22.3 4.3 32.5-8.7-6-18-12.4-27.6-18.7-3.5-2.3-7.1-4.9-10.8-7.6 4.5-6.4 9.7-14.5 14.5-23.6 6.6-12.5 12.4-27 14.3-41.5 5.4-40 8.8-98.1 16.9-116.5 0 0-65 12-75.2 17.9l-12.8-28.2s.1-.1.4-.4c30-13.2 129.8-56.8 136.2-51.5 7.5 6.2-3.7 27.9-6.2 39.1s-42.8 170.7-51.5 187.4c-1.5 3-2.3 6.8-2.5 11.1z"/><path d="m721.4 776.8c-13.8 14.6-20.4 30.7-23.2 38.9-11.5-8.2-25.2-17.6-39.2-26.8-36.8-24.2-79.8-72.9-94.2-94s-11.1-71.8-11.1-71.8 5.2-3.6-44.5 22.2c-49.7 25.7-82.9 11.3-99.1-10.1-1.8-2.4-3-4.6-3.8-6.8-6-17.2 18.2-27.2 18.2-27.2 66.8-35.8 89.8-35 138.3-41.8 48.5-6.9 59.8 57 72.4 89.3 9.8 25.4 63.8 98.4 86.2 128.1z" fill="#161668"/><path d="m707.3 795.8c-4.7 8-7.5 15.2-9.1 19.9-3.7-2.6-7.6-5.3-11.6-8.2-8.7-6-18-12.4-27.6-18.7-3.5-2.3-7.1-4.9-10.8-7.6-34.1-25.7-70.4-67.3-83.5-86.3-14.4-21.1-11.1-71.8-11.1-71.8s5.2-3.6-44.5 22.2c-49.7 25.7-82.9 11.3-99.1-10.1-1.8-2.4-3-4.6-3.8-6.8 30.6-13.6 110.5-49 124-53 16.8-5 44.1-13 52.8 21.1s9.4 75.8 26.1 108.6c4.1 8 27.1 28.5 53.6 52.5 6.3 5.7 12.9 11.5 19.6 17.4 8.2 7 16.6 14.1 25 20.8z"/><path d="m764.5 863.7c-3 0-5.9-2.6-8.5-4.9-.5-.4-.9-.8-1.4-1.2-1.1-.9-1.9-1.5-2.6-1.9-3-1.6-19.7-15.5-28.5-22.9l8.8-39.8 100.2-71.4h.4c3.4 0 5.5.8 6.8 2.4 3.5 4.3 1.4 16-2.2 33.4-5.3 25.9-19.4 45.2-26.9 55.6-.5.7-1 1.4-1.5 2-6.6 9.3-40.4 45.7-42.9 48.3-.5.3-1.1.4-1.7.4z" fill="#fefefe"/><path d="m833 722.5c4 0 5.4 1.2 6.1 2 3.2 4 1.1 15.5-2.4 32.6-5.3 25.7-19.2 44.9-26.7 55.2-.5.7-1 1.4-1.5 2-6.5 9-39.2 44.3-42.7 48.1-.4.2-.9.2-1.3.2-2.6 0-5.4-2.5-7.8-4.7-.5-.4-.9-.8-1.4-1.2-1.1-1-2-1.6-2.8-2-2.7-1.4-17.8-13.9-27.8-22.4l8.6-38.8 99.7-71c-.1 0-.1 0 0 0m0-2c-.2 0-.5 0-.8 0l-100.8 71.8-9.1 40.8s25.1 21.3 29.1 23.5c.8.4 1.6 1 2.5 1.8 3 2.6 6.6 6.4 10.5 6.4.8 0 1.7-.2 2.5-.6 0 0 36.1-38.9 43.1-48.6s22.8-30.1 28.6-58c5.7-27.4 6.7-37-5.6-37.1z"/><path d="m753.9 858.3c-.9-.8-1.7-1.4-2.5-1.8-4-2.1-29.1-23.5-29.1-23.5l9.1-40.8 100.8-71.8h.8c10.9 56.8-65.1 125.9-79.1 137.9z" fill="#020001"/><path d="m742.3 901.2c-42.6 30.7-102.5-38.6-118.6-62.4-9.9-14.7-9.3-22.3-7.4-26 1.2-2.3 2.9-3 2.9-3l20.6-17.2 48.9 25.3c5.3 26.9 40.1 57.7 40.1 57.7 3.8 2.5 6.7 5.3 8.9 8.1 5.4 6.9 6.5 13.8 4.6 17.5z" fill="#020001"/><path d="m742.3 901.2c-42.6 30.7-102.5-38.6-118.6-62.4-9.9-14.7-9.3-22.3-7.4-26 6.6-1.1 15.5-.6 21.1 7.7 10 14.8 18.8 32.7 40.4 40.9 16.4 6.2 44.8 14 59.9 22.3 5.4 6.9 6.5 13.8 4.6 17.5z" fill="#fefefe" stroke="#000" stroke-miterlimit="10" stroke-width="2"/><path d="m469.1 420.8s-4.5 1.2-4.5 9.2 0 42.1 0 42.1 7.6-17.9 16.4-21.7c2.2 0 6.6.2 7 7.2s4.9 16 12.3 17l-10.9-62.6z" fill="#3b00bf"/><path d="m519.6 411.2s4.8-1.2 6 3.1 6 17.7 10.9 23.6 6.6 8.6 6.6 8.6-5.7-1.6-9.6-6.6c0 0-2.9 1.4-2.2 5.1s-2.1 20.7-9.7 20.7z" fill="#3b00bf"/><ellipse cx="548.4" cy="344.9" fill="none" rx="7.9" ry="12.6" stroke="#5911aa" stroke-miterlimit="10" stroke-width="1.7093"/><path d="m552.5 360.6 2.2 37.2c-3.9 3.4-7.9 5.6-12.1 6.8-25.2 7.3-52.8-20.9-52.8-20.9-7.9 10-13.5 5.2-18.1-5.7s2.5-18.7 2.5-18.7l1-39.8 42.1-6.4 17.3-2.6c10.2 6 13.2 33.6 13.2 33.6s15.5 3.2 15.1 7.9c-.4 4.8-10.4 8.6-10.4 8.6z" fill="#fdb2d0"/><path d="m542.7 404.6c-25.2 7.3-52.8-20.9-52.8-20.9-7.9 10-13.5 5.2-18.1-5.7s2.5-18.7 2.5-18.7l1-39.8 42.1-6.4c-4.3 3.5-9.6 9.2-9 15 1 9.7 2.3 50 11 58.9 6.1 6.3 15.4 13.7 23.3 17.6z" fill="#ff84b3"/><path d="m545 328c-4.5 2-5.1 4.4-2.8 6.2 3.7-2.5 5.3-3.4 8.4-3s1.4-3.1.7-3.3-2.6-1.5-6.3.1z" fill="#1a137e"/><path d="m473.1 372s-23.5-11.6-22-35.4c1.4-23.8 20.6-30.6 20.6-30.6s-2.9-25 18.1-28.5c20.9-3.5 24.7 2.4 24.7 2.4s12-6.7 15.5-11.6 25.4-8.1 30.6 5.1 9.5 36.1-27.4 39.9-44.2 11.3-44.2 11.3 21.9-2.4 22 7c.2 9.4-12.2 14.4-12.2 14.4s-2.1 5.2 1 7.9c3 2.7 6.5 9 2.5 11.6s-10 4.6-14.6.2c-4.6-4.5-14.6 6.3-14.6 6.3z" fill="#1a137e"/><path d="m524 329.9c-5.2 4.4-5.1 8.1-1.4 9.8 3.9-4.9 5.7-6.8 9.9-7.4s.8-4.9-.2-4.9-4-1.1-8.3 2.5z" fill="#1a137e"/><path d="m527.2 372s6.9-3.3 13.2 2.5" style="fill:none;stroke:#1a137e;stroke-width:2;stroke-linecap:round;stroke-linejoin:round;stroke-miterlimit:10"/><path d="m496.9 356.6 24.7-10.1" fill="none" stroke="#5911aa" stroke-miterlimit="10" stroke-width="2"/><path d="m543.3 342.8 4.4-.5" fill="none" stroke="#5911aa" stroke-miterlimit="10" stroke-width="2"/><ellipse cx="532.5" cy="344.9" fill="none" rx="10.9" ry="12.6" stroke="#5911aa" stroke-miterlimit="10" stroke-width="2"/><ellipse cx="532.2" cy="346.8" fill="#1a137e" rx="1.6" ry="4.8" transform="matrix(.9889 -.1486 .1486 .9889 -45.6256 82.9386)"/><path d="m431.7 558.8 9.7-72.1" fill="none" stroke="#3b00bf" stroke-linecap="round" stroke-miterlimit="10" stroke-width="3"/><path d="m450.5 490.6-12.2 18.6" fill="none" stroke="#3b00bf" stroke-linecap="round" stroke-miterlimit="10" stroke-width="3"/><path d="m516.6 490.6-2.4 15.7s13.9 1.5 6.3 10.6c0 0 19.9 8.8 19.6 24" fill="none" stroke="#3b00bf" stroke-linecap="round" stroke-miterlimit="10" stroke-width="3"/><path d="m742.3 821.3-12.5 18s-4.9-4.4-13.4-10.6c-.7-.5-1.4-1-2.1-1.5-4.6-3.3-10-7.2-15.9-11.4 1.5-4.7 4.4-11.9 9.1-19.9 11.7 9.4 23.6 18.1 34.8 25.4z" fill="#ff84b3"/><path d="m748.9 811.7-6.6 9.5c-11.1-7.2-23-16-35-25.5 3.5-6.1 8.2-12.7 14.1-18.9 6 7.9 9.7 12.8 9.7 12.8l5.1-.7c-5.4 13.9 12.7 22.8 12.7 22.8z" fill="#fdb2d0"/><path d="m222.7 795.8h100.4s.4-79.3-8.3-88.8h-86.2s-11 44.4-5.9 88.8z" fill="#ff9398"/><path d="m276.7 407.5 7 290" style="fill:none;stroke:#000;stroke-width:1.8226;stroke-linecap:round;stroke-linejoin:round;stroke-miterlimit:10"/><path d="m259.1 371.1 16.8 326.4" style="fill:none;stroke:#000;stroke-width:1.8226;stroke-linecap:round;stroke-linejoin:round;stroke-miterlimit:10"/><path d="m244.8 694.9-2.3-121.5" style="fill:none;stroke:#000;stroke-width:1.8226;stroke-linecap:round;stroke-linejoin:round;stroke-miterlimit:10"/><path d="m259.1 487 1.9 210.5" style="fill:none;stroke:#000;stroke-width:1.8226;stroke-linecap:round;stroke-linejoin:round;stroke-miterlimit:10"/><path d="m269.3 436.7c-10.2-6.2-40-5.1-55.3 33.3s-23.8 67-9.2 59.6 65.3-42.5 71.1-48.5 19.4-28.7-6.6-44.4z" fill="#303d73"/><path d="m267.5 614c-27.7-19.8-65.6-8.8-62.7 65.1s134.4-13.8 62.7-65.1z" fill="#303d73"/><path d="m275.9 697.5c-44.4.4-59.5 0-59.5 0s1.1 13.4 6.2 14.6 92 1 92 1 7.4-.9 8.3-15.6z" fill="#ffb1b2"/><g fill="#00ca9c"><path d="m248.1 658.9c-19.9-7.6-45.9-2.9-61.7 34.9s-39.3 96.9 4.8 69.4 65.3-36 73.4-54 11.3-39.6-16.5-50.3z"/><path d="m274.8 566.8c-35.2 6-38.9 49.9 0 81.1s65.3 58 77.4 62 39.3 7.7 27.2-42.9-18.3-114.9-104.6-100.2z"/><path d="m247 513.6c-23.1-19.6-57.4 7-69.1 42.6s-30.5 97.3 12.1 63.5 105.2-65.4 57-106.1z"/><path d="m282.9 453.7c-33.5 16.7-21.3 51.8 8.1 64.2 29.4 12.5 101.5 51 91.5 20.9-10-30-45.6-111.8-99.6-85.1z"/><path d="m272.3 403.8c-1-24.6 24.1-28.6 42.5-25 18.4 3.7 53.3 13.2 47.4 22s-38.3 18.4-47.4 21.7c-9.1 3.4-41.4 9.6-42.5-18.7z"/></g><path d="m207.3 346.6c22.2-14.4 62.4-7.7 62 12.5s-7.5 21.7-22.3 14.3c-14.7-7.4-52.2-18.8-39.7-26.8z" fill="#303d73"/><path d="m717.4 295.9c-1.5 2.5-4.8 3.2-7.3 1.7l-22.6-14.1c-2.5-1.5-3.2-4.8-1.7-7.3l7.2-11.5c1.5-2.5 4.8-3.2 7.3-1.7l22.6 14.1c2.5 1.5 3.2 4.8 1.7 7.3z" fill="#410fba"/><path d="m697.4 262.1 5.5 21.9 22.1-4.5" fill="none" stroke="#fff" stroke-miterlimit="10" stroke-width=".5675"/><circle cx="725.2" cy="279.2" fill="#f79e29" r="4.3"/></svg>