<svg width="287" height="238" viewBox="0 0 287 238" fill="none" xmlns="http://www.w3.org/2000/svg">
<circle cx="142" cy="97" r="91" fill="#F2F2F2"/>
<ellipse cx="142.5" cy="212" rx="73.5" ry="10" fill="#F2F2F2"/>
<path d="M184.608 82.1509H183.391C183.032 82.1509 182.74 82.4415 182.74 82.8V102.2C182.74 102.558 183.032 102.849 183.391 102.849H184.608C184.968 102.849 185.259 102.558 185.259 102.2V82.8C185.259 82.4415 184.968 82.1509 184.608 82.1509Z" fill="#3A3768"/>
<path d="M99.7993 65.9344H99.6884C99.3288 65.9344 99.0374 66.225 99.0374 66.5835V72.0995C99.0374 72.458 99.3288 72.7487 99.6884 72.7487H99.7993C100.159 72.7487 100.45 72.458 100.45 72.0995V66.5835C100.45 66.225 100.159 65.9344 99.7993 65.9344Z" fill="#3A3768"/>
<path d="M99.9271 78.4121H99.6371C99.2776 78.4121 98.9861 78.7027 98.9861 79.0612V89.6227C98.9861 89.9812 99.2776 90.2719 99.6371 90.2719H99.9271C100.287 90.2719 100.578 89.9812 100.578 89.6227V79.0612C100.578 78.7027 100.287 78.4121 99.9271 78.4121Z" fill="#3A3768"/>
<path d="M99.8762 94.4216H99.663C99.3034 94.4216 99.012 94.7123 99.012 95.0707V105.734C99.012 106.093 99.3034 106.383 99.663 106.383H99.8762C100.236 106.383 100.527 106.093 100.527 105.734V95.0707C100.527 94.7123 100.236 94.4216 99.8762 94.4216Z" fill="#3A3768"/>
<path d="M173.015 43.4168H110.921C104.799 43.4168 99.8362 48.3649 99.8362 54.4687V203.115C99.8362 209.219 104.799 214.167 110.921 214.167H173.015C179.136 214.167 184.099 209.219 184.099 203.115V54.4687C184.099 48.3649 179.136 43.4168 173.015 43.4168Z" fill="#3A3768"/>
<path d="M172.213 47.8528H162.547V49.0122C162.547 49.7338 162.405 50.4484 162.128 51.115C161.851 51.7817 161.444 52.3874 160.933 52.8976C160.421 53.4077 159.813 53.8123 159.144 54.0882C158.475 54.3641 157.759 54.5059 157.035 54.5055H126.295C125.571 54.5059 124.854 54.3641 124.186 54.0882C123.517 53.8123 122.909 53.4077 122.397 52.8976C121.885 52.3874 121.479 51.7817 121.202 51.115C120.925 50.4484 120.783 49.7338 120.783 49.0122V47.8528H111.734C109.959 47.8528 108.257 48.5558 107.002 49.8072C105.747 51.0585 105.042 52.7557 105.042 54.5254V203.047C105.042 204.817 105.747 206.514 107.002 207.765C108.257 209.017 109.959 209.72 111.734 209.72H172.213C173.988 209.72 175.69 209.017 176.945 207.765C178.2 206.514 178.905 204.817 178.905 203.047V54.5367C178.907 53.6595 178.735 52.7906 178.399 51.9798C178.063 51.1689 177.571 50.432 176.949 49.8112C176.328 49.1904 175.589 48.6979 174.777 48.3618C173.964 48.0258 173.093 47.8528 172.213 47.8528Z" fill="#FFAA2A"/>
<path d="M144.506 48.5161H134.94C134.332 48.5161 133.84 49.0072 133.84 49.6131V49.8002C133.84 50.406 134.332 50.8971 134.94 50.8971H144.506C145.114 50.8971 145.606 50.406 145.606 49.8002V49.6131C145.606 49.0072 145.114 48.5161 144.506 48.5161Z" fill="#E6E8EC"/>
<path d="M148.742 51.0587C149.491 51.0587 150.098 50.4534 150.098 49.7066C150.098 48.9599 149.491 48.3546 148.742 48.3546C147.993 48.3546 147.386 48.9599 147.386 49.7066C147.386 50.4534 147.993 51.0587 148.742 51.0587Z" fill="#E6E8EC"/>
<path d="M213.273 35.9279C213.273 35.9279 189.336 34.4879 192.156 51.2118C192.156 51.2118 191.587 54.1682 194.282 55.5089C194.282 55.5089 194.325 54.2703 196.738 54.6926C197.598 54.8346 198.471 54.8765 199.34 54.8173C200.512 54.7405 201.627 54.2859 202.518 53.5219C202.518 53.5219 209.247 50.7497 211.863 39.7857C211.863 39.7857 213.799 37.3934 213.722 36.7783L209.682 38.4988C209.682 38.4988 211.064 41.4042 209.966 43.8193C209.966 43.8193 209.836 38.6037 209.06 38.7171C208.903 38.7398 206.961 39.7234 206.961 39.7234C206.961 39.7234 209.335 44.783 207.544 48.4623C207.544 48.4623 208.224 42.2263 206.219 40.089L203.377 41.7444C203.377 41.7444 206.151 46.9713 204.269 51.2373C204.269 51.2373 204.753 44.6952 202.777 42.1469L200.201 44.1509C200.201 44.1509 202.808 49.3013 201.219 52.8388C201.219 52.8388 201.011 45.2252 199.644 44.6498C199.644 44.6498 197.389 46.634 197.046 47.4447C197.046 47.4447 198.831 51.1863 197.722 53.1591C197.722 53.1591 197.043 48.0853 196.485 48.0569C196.485 48.0569 194.24 51.4187 194.006 53.726C194.006 53.726 194.103 50.2991 195.942 47.7395C195.942 47.7395 193.771 48.1108 192.503 49.5139C192.503 49.5139 192.852 47.1385 196.497 46.9288C196.497 46.9288 198.353 44.3777 198.848 44.2246C198.848 44.2246 195.226 43.9213 193.029 44.8936C193.029 44.8936 194.962 42.6514 199.513 43.6719L202.057 41.5998C202.057 41.5998 197.287 40.9507 195.263 41.6679C195.263 41.6679 197.591 39.6837 202.743 41.1293L205.512 39.4796C205.512 39.4796 201.443 38.6065 199.021 38.9127C199.021 38.9127 201.58 37.5379 206.325 39.0289L208.315 38.1417C208.315 38.1417 205.335 37.5578 204.463 37.4642C203.59 37.3707 203.544 37.1326 203.544 37.1326C205.432 36.8188 207.37 37.0337 209.142 37.7533C209.142 37.7533 213.344 36.1915 213.273 35.9279Z" fill="#FFAA2A"/>
<path d="M188.719 28.49C188.719 28.49 177.916 27.8409 179.178 35.3978C179.178 35.3978 178.925 36.7329 180.139 37.3395C180.139 37.3395 180.159 36.7726 181.25 36.9682C181.638 37.0332 182.032 37.0522 182.425 37.0248C182.955 36.9899 183.459 36.7828 183.86 36.4353C183.86 36.4353 186.902 35.1824 188.085 30.2276C188.085 30.2276 188.958 29.1476 188.923 28.8699L187.098 29.6465C187.098 29.6465 187.721 30.9589 187.232 32.0502C187.232 32.0502 187.172 29.6947 186.823 29.7486C186.751 29.7486 185.873 30.2049 185.873 30.2049C185.873 30.2049 186.948 32.4924 186.137 34.1534C186.137 34.1534 186.444 31.3359 185.538 30.3693L184.253 31.129C184.253 31.129 185.506 33.4902 184.656 35.4177C184.656 35.4177 184.875 32.4612 183.983 31.3104L182.82 32.2175C182.82 32.2175 183.997 34.5446 183.28 36.1433C183.28 36.1433 183.184 32.7022 182.567 32.4414C182.567 32.4414 181.549 33.3371 181.393 33.7056C181.393 33.7056 182.2 35.4063 181.7 36.2879C181.7 36.2879 181.393 33.9947 181.131 33.9834C181.131 33.9834 180.116 35.5027 180.011 36.5345C180.062 35.5725 180.364 34.6403 180.887 33.8303C180.301 33.9409 179.76 34.2197 179.332 34.6325C179.332 34.6325 179.491 33.5582 181.137 33.4647C181.137 33.4647 181.99 32.311 182.2 32.2401C182.2 32.2401 180.563 32.1041 179.57 32.5434C179.57 32.5434 180.443 31.5315 182.499 31.9907L183.636 31.0553C183.636 31.0553 181.478 30.7718 180.565 31.0865C180.565 31.0865 181.617 30.1908 183.946 30.8427L185.196 30.0972C185.196 30.0972 183.357 29.7032 182.263 29.8449C182.263 29.8449 183.42 29.2242 185.563 29.896L186.459 29.4963C186.459 29.4963 185.111 29.2327 184.716 29.1902C184.321 29.1476 184.301 29.0399 184.301 29.0399C185.154 28.8984 186.03 28.9965 186.831 29.3234C186.831 29.3234 188.753 28.6091 188.719 28.49Z" fill="#FFAA2A"/>
<path d="M79.1975 129.452C79.1975 129.452 55.2604 128.012 58.0806 144.736C58.0806 144.736 57.512 147.692 60.207 149.033C60.207 149.033 60.2497 147.794 62.6633 148.216C63.5226 148.359 64.3955 148.4 65.2645 148.341C66.4368 148.264 67.5523 147.81 68.4428 147.046C68.4428 147.046 75.1719 144.274 77.7874 133.31C77.7874 133.31 79.7234 130.917 79.6466 130.302L75.6069 132.023C75.6069 132.023 76.9885 134.928 75.8912 137.343C75.8912 137.343 75.7604 132.128 74.9843 132.241C74.828 132.264 72.8863 133.247 72.8863 133.247C72.8863 133.247 75.2601 138.307 73.4691 141.986C73.4691 141.986 74.1485 135.75 72.1443 133.613L69.3014 135.268C69.3014 135.268 72.0761 140.495 70.1941 144.761C70.1941 144.761 70.6774 138.219 68.7016 135.671L66.1259 137.675C66.1259 137.675 68.7328 142.825 67.1437 146.363C67.1437 146.363 66.9361 138.749 65.5687 138.174C65.5687 138.174 63.3143 140.158 62.9703 140.969C62.9703 140.969 64.7556 144.71 63.6469 146.683C63.6469 146.683 62.9675 141.609 62.4103 141.581C62.4103 141.581 60.1644 144.943 59.9313 147.25C59.9313 147.25 60.0279 143.823 61.8673 141.263C61.8673 141.263 59.6953 141.635 58.4274 143.038C58.4274 143.038 58.7771 140.662 62.4216 140.453C62.4216 140.453 64.278 137.902 64.7727 137.749C64.7727 137.749 61.1509 137.445 58.9533 138.417C58.9533 138.417 60.8865 136.175 65.4379 137.196L67.9823 135.124C67.9823 135.124 63.212 134.475 61.1878 135.192C61.1878 135.192 63.5162 133.208 68.6674 134.653L71.4364 133.003C71.4364 133.003 67.3682 132.13 64.9461 132.437C64.9461 132.437 67.5047 131.062 72.2495 132.553L74.2395 131.666C74.2395 131.666 71.2601 131.082 70.3874 130.988C69.5146 130.895 69.4691 130.656 69.4691 130.656C71.3567 130.343 73.2945 130.558 75.0668 131.277C75.0668 131.277 79.2685 129.715 79.1975 129.452Z" fill="#FFAA2A"/>
<path d="M54.6433 122.014C54.6433 122.014 43.8403 121.365 45.1026 128.922C45.1026 128.922 44.8496 130.257 46.0635 130.863C46.0635 130.863 46.0834 130.296 47.175 130.492C47.5628 130.557 47.9569 130.576 48.3492 130.549C48.8794 130.514 49.3837 130.307 49.7848 129.959C49.7848 129.959 52.8267 128.706 54.0094 123.752C54.0094 123.752 54.8821 122.672 54.848 122.394L53.0229 123.17C53.0229 123.17 53.6455 124.483 53.1565 125.574C53.1565 125.574 53.0968 123.219 52.7471 123.272C52.676 123.272 51.7976 123.729 51.7976 123.729C51.7976 123.729 52.8722 126.016 52.062 127.677C52.062 127.677 52.369 124.86 51.4621 123.893L50.1771 124.653C50.1771 124.653 51.4309 127.014 50.5808 128.942C50.5808 128.942 50.7997 125.985 49.9071 124.834L48.7443 125.741C48.7443 125.741 49.9213 128.069 49.2049 129.667C49.2049 129.667 49.1082 126.226 48.4913 125.965C48.4913 125.965 47.4735 126.861 47.3172 127.23C47.3172 127.23 48.1246 128.93 47.6242 129.812C47.6242 129.812 47.3172 127.519 47.0556 127.507C47.0556 127.507 46.0407 129.027 45.9355 130.058C45.9863 129.096 46.2882 128.164 46.8112 127.354C46.2255 127.465 45.685 127.744 45.2561 128.156C45.2561 128.156 45.4153 127.082 47.0613 126.989C47.0613 126.989 47.9142 125.835 48.1246 125.764C48.1246 125.764 46.4871 125.628 45.4949 126.067C45.4949 126.067 46.3677 125.055 48.4231 125.515L49.5602 124.579C49.5602 124.579 47.4025 124.296 46.4899 124.61C46.4899 124.61 47.5418 123.715 49.8701 124.367L51.121 123.621C51.121 123.621 49.2816 123.227 48.1871 123.369C48.1871 123.369 49.3442 122.748 51.4877 123.42L52.3832 123.02C52.3832 123.02 51.0357 122.757 50.6405 122.714C50.2454 122.672 50.2255 122.564 50.2255 122.564C51.0789 122.422 51.955 122.52 52.7556 122.847C52.7556 122.847 54.6774 122.133 54.6433 122.014Z" fill="#FFAA2A"/>
<path opacity="0.1" d="M245.673 220.497C249.901 220.497 253.329 219.919 253.329 219.207C253.329 218.495 249.901 217.917 245.673 217.917C241.445 217.917 238.017 218.495 238.017 219.207C238.017 219.919 241.445 220.497 245.673 220.497Z" fill="#FF9D2C"/>
<path opacity="0.1" d="M25.8956 231.081C30.1238 231.081 33.5515 230.503 33.5515 229.791C33.5515 229.079 30.1238 228.501 25.8956 228.501C21.6674 228.501 18.2397 229.079 18.2397 229.791C18.2397 230.503 21.6674 231.081 25.8956 231.081Z" fill="#FF9D2C"/>
<path opacity="0.1" d="M55.51 238C59.7382 238 63.1659 237.423 63.1659 236.71C63.1659 235.998 59.7382 235.421 55.51 235.421C51.2818 235.421 47.8541 235.998 47.8541 236.71C47.8541 237.423 51.2818 238 55.51 238Z" fill="#FF9D2C"/>
<path d="M219.419 230.918C225.732 230.918 230.85 230.055 230.85 228.991C230.85 227.926 225.732 227.063 219.419 227.063C213.106 227.063 207.988 227.926 207.988 228.991C207.988 230.055 213.106 230.918 219.419 230.918Z" fill="#FFAA2A"/>
<path d="M224.147 225.839C224.668 225.414 225.047 224.842 225.235 224.197C225.378 223.548 225.099 222.78 224.474 222.528C223.774 222.261 223.027 222.746 222.461 223.234C221.895 223.721 221.244 224.28 220.502 224.175C220.884 223.83 221.17 223.393 221.332 222.906C221.494 222.419 221.526 221.898 221.426 221.394C221.393 221.185 221.303 220.989 221.167 220.827C220.781 220.413 220.076 220.589 219.612 220.918C218.134 221.953 217.722 223.957 217.713 225.756C217.563 225.107 217.69 224.43 217.685 223.772C217.679 223.115 217.5 222.355 216.934 222.006C216.585 221.82 216.193 221.728 215.797 221.74C215.132 221.714 214.393 221.782 213.938 222.267C213.369 222.868 213.523 223.877 214.012 224.535C214.501 225.192 215.248 225.615 215.936 226.071C216.487 226.398 216.956 226.845 217.31 227.378C217.352 227.452 217.386 227.531 217.412 227.613H221.565C222.502 227.14 223.37 226.543 224.147 225.839Z" fill="#FFAA2A"/>
<path d="M124.431 231.333C130.744 231.333 135.862 230.47 135.862 229.405C135.862 228.341 130.744 227.478 124.431 227.478C118.118 227.478 113 228.341 113 229.405C113 230.47 118.118 231.333 124.431 231.333Z" fill="#FFAA2A"/>
<path d="M129.159 226.253C129.68 225.829 130.059 225.256 130.248 224.612C130.39 223.963 130.111 223.195 129.486 222.943C128.786 222.676 128.039 223.161 127.473 223.648C126.907 224.136 126.256 224.694 125.514 224.589C125.896 224.245 126.182 223.808 126.344 223.321C126.506 222.833 126.538 222.312 126.438 221.809C126.405 221.6 126.316 221.404 126.18 221.242C125.793 220.828 125.088 221.004 124.624 221.333C123.146 222.367 122.734 224.371 122.725 226.171C122.575 225.522 122.703 224.845 122.697 224.187C122.691 223.529 122.512 222.77 121.946 222.421C121.597 222.234 121.205 222.142 120.809 222.155C120.144 222.129 119.405 222.197 118.95 222.682C118.382 223.283 118.535 224.292 119.024 224.949C119.513 225.607 120.261 226.029 120.949 226.486C121.499 226.813 121.968 227.26 122.322 227.792C122.364 227.867 122.399 227.946 122.424 228.028H126.578C127.514 227.555 128.382 226.958 129.159 226.253Z" fill="#FFAA2A"/>
<path d="M55.9054 205.014C55.9054 205.014 57.469 207.052 55.1861 210.117C52.9033 213.181 51.0213 215.786 51.7747 217.705C51.7747 217.705 55.2202 211.993 58.029 211.914C60.8378 211.834 58.9899 208.45 55.9054 205.014Z" fill="#FFAA2A"/>
<path opacity="0.1" d="M55.9053 205.014C56.0417 205.212 56.1489 205.427 56.2237 205.655C58.9586 208.858 60.417 211.848 57.7873 211.922C55.3396 211.993 52.4029 216.358 51.6979 217.461C51.7206 217.546 51.7491 217.628 51.7803 217.713C51.7803 217.713 55.2259 212.002 58.0347 211.922C60.8434 211.843 58.9899 208.45 55.9053 205.014Z" fill="black"/>
<path d="M58.8078 207.611C58.8078 208.328 58.7282 208.909 58.6287 208.909C58.5292 208.909 58.4496 208.328 58.4496 207.611C58.4496 206.894 58.5491 207.231 58.6486 207.231C58.7481 207.231 58.8078 206.894 58.8078 207.611Z" fill="#FFD037"/>
<path d="M59.8056 208.467C59.1745 208.81 58.623 209.017 58.5775 208.929C58.532 208.841 59.0011 208.492 59.6322 208.149C60.2633 207.806 60.016 208.056 60.0615 208.149C60.107 208.243 60.4367 208.124 59.8056 208.467Z" fill="#FFD037"/>
<path d="M47.6579 205.014C47.6579 205.014 46.0944 207.052 48.3772 210.117C50.66 213.181 52.542 215.786 51.7886 217.705C51.7886 217.705 48.3459 211.993 45.5343 211.914C42.7227 211.834 44.5677 208.45 47.6579 205.014Z" fill="#FFAA2A"/>
<path opacity="0.1" d="M47.658 205.014C47.5213 205.212 47.4131 205.427 47.3368 205.655C44.6019 208.858 43.1464 211.848 45.7732 211.922C48.2238 211.993 51.1605 216.358 51.8655 217.461C51.8422 217.547 51.8137 217.631 51.7802 217.713C51.7802 217.713 48.3375 212.002 45.5259 211.922C42.7142 211.843 44.5678 208.45 47.658 205.014Z" fill="black"/>
<path d="M44.7528 207.611C44.7528 208.328 44.8353 208.909 44.9348 208.909C45.0343 208.909 45.1139 208.328 45.1139 207.611C45.1139 206.894 45.0144 207.231 44.9149 207.231C44.8154 207.231 44.7528 206.894 44.7528 207.611Z" fill="#FFD037"/>
<path d="M43.7574 208.467C44.3885 208.81 44.9372 209.017 44.9855 208.929C45.0339 208.841 44.5591 208.492 43.928 208.149C43.2969 207.806 43.547 208.056 43.4987 208.149C43.4504 208.243 43.1263 208.124 43.7574 208.467Z" fill="#FFD037"/>
<path d="M45.25 217.447C45.25 217.447 49.6167 217.311 50.9358 216.378C52.2549 215.445 57.6535 214.326 57.9776 215.825C58.3017 217.325 64.5418 223.277 59.6122 223.317C54.6827 223.357 48.1554 222.552 46.842 221.755C45.5286 220.959 45.25 217.447 45.25 217.447Z" fill="#A8A8A8"/>
<path opacity="0.2" d="M59.6975 222.796C54.768 222.835 48.2407 222.03 46.9273 221.234C45.9294 220.624 45.5286 218.444 45.395 217.441H45.25C45.25 217.441 45.5343 220.95 46.8392 221.75C48.1441 222.549 54.6798 223.351 59.6094 223.311C61.0308 223.311 61.5226 222.796 61.4971 222.047C61.2981 222.506 60.7551 222.787 59.6975 222.796Z" fill="black"/>
<path d="M142.482 146.781C151.286 146.781 158.422 139.666 158.422 130.888C158.422 122.11 151.286 114.995 142.482 114.995C133.679 114.995 126.542 122.11 126.542 130.888C126.542 139.666 133.679 146.781 142.482 146.781Z" fill="white"/>
<path d="M163.426 128.793C163.426 132.995 162.176 137.102 159.835 140.595C157.494 144.088 154.167 146.811 150.274 148.419C146.381 150.026 142.098 150.447 137.965 149.627C133.832 148.808 130.036 146.785 127.057 143.814C124.077 140.843 122.048 137.058 121.226 132.938C120.404 128.817 120.826 124.546 122.438 120.664C124.051 116.783 126.782 113.465 130.285 111.131C133.789 108.797 137.908 107.551 142.121 107.551C147.772 107.551 153.19 109.789 157.186 113.773C161.181 117.757 163.426 123.16 163.426 128.793ZM139.659 140.038L155.463 124.281C155.591 124.154 155.692 124.003 155.761 123.836C155.831 123.67 155.866 123.491 155.866 123.311C155.866 123.131 155.831 122.953 155.761 122.787C155.692 122.62 155.591 122.469 155.463 122.342L153.518 120.417C153.391 120.29 153.24 120.189 153.073 120.12C152.906 120.051 152.728 120.015 152.547 120.015C152.367 120.015 152.188 120.051 152.022 120.12C151.855 120.189 151.704 120.29 151.577 120.417L138.687 133.269L132.669 127.254C132.41 126.998 132.061 126.854 131.696 126.854C131.332 126.854 130.982 126.998 130.724 127.254L128.78 129.204C128.523 129.462 128.378 129.811 128.378 130.174C128.378 130.537 128.523 130.886 128.78 131.143L137.715 140.049C137.842 140.177 137.994 140.278 138.161 140.347C138.327 140.416 138.506 140.452 138.687 140.452C138.868 140.452 139.046 140.416 139.213 140.347C139.38 140.278 139.532 140.177 139.659 140.049V140.038Z" fill="#FF6B4A"/>
</svg>
