<svg width="60" height="60" viewBox="0 0 60 60" fill="none" xmlns="http://www.w3.org/2000/svg">
<path fill-rule="evenodd" clip-rule="evenodd" d="M12.9947 41.3178C12.0919 41.9581 11.7188 42.5756 11.7188 43.125C11.7188 43.6744 12.0919 44.2919 12.9947 44.9322C13.8852 45.5638 15.2043 46.1518 16.8764 46.6535C20.2148 47.655 24.8548 48.2812 30 48.2812C35.1452 48.2812 39.7852 47.655 43.1236 46.6535C44.7957 46.1518 46.1148 45.5638 47.0053 44.9322C47.9081 44.2919 48.2812 43.6744 48.2812 43.125C48.2812 42.5756 47.9081 41.9581 47.0053 41.3178C46.1148 40.6862 44.7957 40.0982 43.1236 39.5965C39.7852 38.595 35.1452 37.9688 30 37.9688C24.8548 37.9688 20.2148 38.595 16.8764 39.5965C15.2043 40.0982 13.8852 40.6862 12.9947 41.3178ZM16.6071 38.6985C20.0549 37.6642 24.7899 37.0312 30 37.0312C35.2101 37.0312 39.9451 37.6642 43.3929 38.6985C45.1139 39.2148 46.5407 39.8389 47.5477 40.5532C48.5426 41.2588 49.2188 42.1211 49.2188 43.125C49.2188 44.1289 48.5426 44.9912 47.5477 45.6968C46.5407 46.4111 45.1139 47.0352 43.3929 47.5515C39.9451 48.5858 35.2101 49.2188 30 49.2188C24.7899 49.2188 20.0549 48.5858 16.6071 47.5515C14.8861 47.0352 13.4593 46.4111 12.4523 45.6968C11.4574 44.9912 10.7812 44.1289 10.7812 43.125C10.7812 42.1211 11.4574 41.2588 12.4523 40.5532C13.4593 39.8389 14.8861 39.2148 16.6071 38.6985Z" fill="black"/>
<path fill-rule="evenodd" clip-rule="evenodd" d="M21.6329 41.4751C21.2046 41.7789 21.0938 42.0264 21.0938 42.1875C21.0938 42.3486 21.2046 42.5961 21.6329 42.8999C22.0491 43.1951 22.6817 43.4801 23.5056 43.7273C25.1474 44.2198 27.4436 44.5312 30 44.5312C32.5564 44.5312 34.8526 44.2198 36.4944 43.7273C37.3183 43.4801 37.9509 43.1951 38.3671 42.8999C38.7954 42.5961 38.9062 42.3486 38.9062 42.1875C38.9062 42.0264 38.7954 41.7789 38.3671 41.4751C37.9509 41.1799 37.3183 40.8949 36.4944 40.6477C34.8526 40.1552 32.5564 39.8438 30 39.8438C27.4436 39.8438 25.1474 40.1552 23.5056 40.6477C22.6817 40.8949 22.0491 41.1799 21.6329 41.4751ZM23.2362 39.7498C24.9874 39.2244 27.3787 38.9062 30 38.9062C32.6213 38.9062 35.0126 39.2244 36.7638 39.7498C37.6365 40.0116 38.3768 40.3326 38.9095 40.7104C39.4299 41.0796 39.8438 41.5719 39.8438 42.1875C39.8438 42.8031 39.4299 43.2954 38.9095 43.6646C38.3768 44.0424 37.6365 44.3634 36.7638 44.6252C35.0126 45.1506 32.6213 45.4688 30 45.4688C27.3787 45.4688 24.9874 45.1506 23.2362 44.6252C22.3635 44.3634 21.6232 44.0424 21.0905 43.6646C20.5701 43.2954 20.1562 42.8031 20.1562 42.1875C20.1562 41.5719 20.5701 41.0796 21.0905 40.7104C21.6232 40.3326 22.3635 40.0116 23.2362 39.7498Z" fill="black"/>
<path fill-rule="evenodd" clip-rule="evenodd" d="M31.4062 43.5938C31.4062 43.5938 42.1875 35.1562 42.1875 23.9062C42.1875 18.2812 38.5938 12.6562 31.4062 12.6562C24.2187 12.6562 20.625 18.2812 20.625 23.9062C20.625 35.1562 31.4062 43.5938 31.4062 43.5938ZM31.4062 26.7188C33.2184 26.7188 34.6875 25.2497 34.6875 23.4375C34.6875 21.6253 33.2184 20.1562 31.4062 20.1562C29.5941 20.1562 28.125 21.6253 28.125 23.4375C28.125 25.2497 29.5941 26.7188 31.4062 26.7188Z" fill="#30F2C4"/>
<path fill-rule="evenodd" clip-rule="evenodd" d="M29.4222 42.9258L30 42.1875L30.5778 42.9258C30.2384 43.1914 29.7616 43.1914 29.4222 42.9258ZM30 42.1875C30 42.1875 19.2188 33.75 19.2188 22.5C19.2188 16.875 22.8125 11.25 30 11.25C37.1875 11.25 40.7812 16.875 40.7812 22.5C40.7812 33.75 30 42.1875 30 42.1875ZM30.5784 42.9253C30.5781 42.9256 30.5778 42.9258 30 42.1875C29.4222 42.9258 29.4219 42.9256 29.4216 42.9253L29.4208 42.9247L29.4184 42.9228L29.4106 42.9167L29.3837 42.8952C29.3607 42.8768 29.3278 42.8503 29.2856 42.8159C29.2013 42.7469 29.0798 42.6461 28.9266 42.5148C28.6203 42.2522 28.1864 41.8672 27.6674 41.3708C26.6305 40.3791 25.2487 38.9372 23.8654 37.1329C21.112 33.5416 18.2812 28.4198 18.2812 22.5C18.2812 19.4982 19.2387 16.4606 21.2004 14.1577C23.1793 11.8347 26.1376 10.3125 30 10.3125C33.8624 10.3125 36.8207 11.8347 38.7996 14.1577C40.7613 16.4606 41.7188 19.4982 41.7188 22.5C41.7188 28.4198 38.888 33.5416 36.1346 37.1329C34.7513 38.9372 33.3695 40.3791 32.3326 41.3708C31.8136 41.8672 31.3797 42.2522 31.0734 42.5148C30.9202 42.6461 30.7987 42.7469 30.7144 42.8159C30.6722 42.8503 30.6393 42.8768 30.6163 42.8952L30.5894 42.9167L30.5816 42.9228L30.5792 42.9247L30.5784 42.9253Z" fill="black"/>
<path fill-rule="evenodd" clip-rule="evenodd" d="M30 18.75C28.1878 18.75 26.7188 20.2191 26.7188 22.0312C26.7188 23.8434 28.1878 25.3125 30 25.3125C31.8122 25.3125 33.2812 23.8434 33.2812 22.0312C33.2812 20.2191 31.8122 18.75 30 18.75ZM25.7812 22.0312C25.7812 19.7013 27.67 17.8125 30 17.8125C32.33 17.8125 34.2188 19.7013 34.2188 22.0312C34.2188 24.3612 32.33 26.25 30 26.25C27.67 26.25 25.7812 24.3612 25.7812 22.0312Z" fill="black"/>
</svg>
