<svg width="24" height="24" viewBox="0 0 24 24" fill="none" xmlns="http://www.w3.org/2000/svg">
<path d="M23.3571 3.57447H0.642857C0.287839 3.57447 0 3.23151 0 2.80851V0.765957C0 0.342957 0.287839 0 0.642857 0H23.3571C23.7122 0 24 0.342957 24 0.765957V2.80851C24 3.23151 23.7122 3.57447 23.3571 3.57447ZM23.3571 13.7872H0.642857C0.287839 13.7872 0 13.4443 0 13.0213V10.9787C0 10.5557 0.287839 10.2128 0.642857 10.2128H23.3571C23.7122 10.2128 24 10.5557 24 10.9787V13.0213C24 13.4443 23.7122 13.7872 23.3571 13.7872ZM23.3571 24H0.642857C0.287839 24 0 23.657 0 23.234V21.1915C0 20.7685 0.287839 20.4255 0.642857 20.4255H23.3571C23.7122 20.4255 24 20.7685 24 21.1915V23.234C24 23.657 23.7122 24 23.3571 24Z" fill="white"/>
</svg>
