<svg enable-background="new 0 0 460.92 293.79" viewBox="0 0 460.92 293.79" xmlns="http://www.w3.org/2000/svg"><path d="m59.51 93.61h299.88v1.73h-299.88z" fill="#d1cfd0"/><circle cx="79.7" cy="83.76" fill="#d62800" r="2.68"/><circle cx="91.83" cy="83.76" fill="#f97f23" r="2.68"/><circle cx="103.52" cy="83.76" fill="#0f6d66" r="2.68"/><path d="m389.35 282.21h-319.25c-6.32 0-11.46-5.14-11.46-11.46v-36.43h32.13c3.94 0 7.14-3.2 7.14-7.14v-66.83c0-3.94-3.2-7.14-7.14-7.14h-32.13v-70.9c0-6.32 5.14-11.46 11.46-11.46h319.25c6.32 0 11.46 5.14 11.46 11.46v5.29h-33.15c-3.93 0-7.14 3.2-7.14 7.14v66.83c0 3.94 3.2 7.14 7.14 7.14h33.15v102.04c0 6.32-5.14 11.46-11.46 11.46zm-328.98-46.17v34.71c0 5.37 4.37 9.73 9.73 9.73h319.25c5.37 0 9.73-4.37 9.73-9.73v-100.32h-31.42c-4.89 0-8.86-3.98-8.86-8.86v-66.83c0-4.89 3.98-8.86 8.86-8.86h31.42v-3.57c0-5.37-4.37-9.73-9.73-9.73h-319.25c-5.37 0-9.73 4.37-9.73 9.73v69.18h30.41c4.89 0 8.86 3.98 8.86 8.86v66.83c0 4.89-3.98 8.86-8.86 8.86z" fill="#d1cfd0"/><path d="m440.41 170.43h-72.75c-4.89 0-8.86-3.98-8.86-8.86v-66.83c0-4.89 3.98-8.86 8.86-8.86h72.75c4.89 0 8.86 3.98 8.86 8.86v66.83c0 4.89-3.98 8.86-8.86 8.86zm-72.75-82.83c-3.93 0-7.14 3.2-7.14 7.14v66.83c0 3.94 3.2 7.14 7.14 7.14h72.75c3.94 0 7.14-3.2 7.14-7.14v-66.83c0-3.94-3.2-7.14-7.14-7.14z" fill="#d1cfd0"/><path d="m90.77 236.04h-72.74c-4.89 0-8.86-3.98-8.86-8.86v-66.83c0-4.89 3.98-8.86 8.86-8.86h72.75c4.89 0 8.86 3.98 8.86 8.86v66.83c0 4.89-3.98 8.86-8.87 8.86zm-72.74-82.83c-3.94 0-7.14 3.2-7.14 7.14v66.83c0 3.94 3.2 7.14 7.14 7.14h72.75c3.94 0 7.14-3.2 7.14-7.14v-66.83c0-3.94-3.2-7.14-7.14-7.14z" fill="#d1cfd0"/><path d="m71.42 217.13h-32.39c-4.57 0-8.27-3.7-8.27-8.27v-30.18c0-4.57 3.7-8.27 8.27-8.27h32.39c4.57 0 8.27 3.7 8.27 8.27v30.18c0 4.56-3.7 8.27-8.27 8.27z" fill="#3f8cfc"/><path d="m420.23 148.34h-32.39c-4.57 0-8.27-3.7-8.27-8.27v-25.74c0-4.57 3.7-8.27 8.27-8.27h32.39c4.57 0 8.27 3.7 8.27 8.27v25.74c0 4.57-3.7 8.27-8.27 8.27z" fill="#f97f23"/><path d="m177.38 51.22h-26.3c-4.57 0-8.27-3.7-8.27-8.27v-24.73c0-4.57 3.7-8.27 8.27-8.27h26.3c4.57 0 8.27 3.7 8.27 8.27v24.72c0 4.57-3.7 8.28-8.27 8.28z" fill="#54d6e5"/><path d="m348.6 29.78h-67.9c-1.34 0-2.42 1.08-2.42 2.42v15.94c0 1.34 1.08 2.42 2.42 2.42h6.15l-1 5.38 5.99-5.38h56.76c1.34 0 2.42-1.08 2.42-2.42v-15.94c-.01-1.34-1.09-2.42-2.42-2.42z" fill="#f5ab9d"/><g fill="#fff"><path d="m412.6 135.82h-17.14c-1.66 0-3.01-1.35-3.01-3.01v-12.86c0-1.66 1.35-3.01 3.01-3.01h17.14c1.66 0 3.01 1.35 3.01 3.01v12.86c0 1.66-1.35 3.01-3.01 3.01zm-17.14-17.14c-.71 0-1.28.57-1.28 1.28v12.86c0 .71.57 1.28 1.28 1.28h17.14c.71 0 1.28-.57 1.28-1.28v-12.86c0-.71-.57-1.28-1.28-1.28z"/><path d="m404.03 128.32c-.17 0-.35-.05-.49-.16l-10.71-7.5c-.39-.27-.49-.81-.21-1.2.27-.39.81-.49 1.2-.21l10.22 7.15 10.22-7.15c.39-.27.93-.18 1.2.21s.18.93-.21 1.2l-10.71 7.5c-.16.11-.34.16-.51.16z"/><path d="m171.08 40.05c-.07 0-.15 0-.22-.01-2.79-.3-5.5-1.27-7.84-2.79-2.17-1.38-4.05-3.26-5.44-5.44-1.52-2.35-2.48-5.07-2.78-7.85-.06-.7.15-1.37.59-1.9s1.07-.86 1.75-.92c.07-.01.15-.01.22-.01h2.6.02c1.28 0 2.38.95 2.56 2.23.1.77.29 1.52.56 2.24.35.94.13 2.01-.58 2.73l-.62.62c1.01 1.59 2.37 2.94 3.96 3.96l.62-.62c.72-.71 1.79-.94 2.74-.59.72.27 1.47.46 2.23.56 1.31.18 2.26 1.31 2.23 2.62v2.58c.01 1.42-1.15 2.59-2.58 2.6-.01-.01-.01-.01-.02-.01zm-11.1-17.2h-2.61c-.55.05-.9.47-.86.94.27 2.51 1.14 4.96 2.51 7.09 1.25 1.97 2.95 3.67 4.92 4.92 2.12 1.38 4.57 2.25 7.08 2.52.54 0 .93-.39.93-.86v-2.59c0-.01 0-.01 0-.02.01-.44-.31-.81-.74-.88-.88-.12-1.76-.34-2.61-.65-.32-.12-.67-.04-.91.19l-1.09 1.09c-.27.27-.7.33-1.04.14-2.29-1.3-4.2-3.21-5.5-5.5-.19-.34-.13-.76.14-1.04l1.1-1.1c.23-.24.31-.59.19-.91-.31-.84-.53-1.72-.65-2.62-.06-.4-.43-.72-.86-.72z"/><path d="m338.19 37.44h-50.38c-.48 0-.86-.39-.86-.86s.39-.86.86-.86h50.38c.48 0 .86.39.86.86s-.39.86-.86.86z"/><path d="m316.23 43.72h-28.42c-.48 0-.86-.39-.86-.86s.39-.86.86-.86h28.42c.48 0 .86.39.86.86s-.38.86-.86.86z"/><path d="m67.91 198.17c.48-1.38.75-2.86.75-4.4s-.26-3.02-.75-4.4c-.01-.04-.03-.08-.04-.12-1.86-5.16-6.81-8.86-12.6-8.86s-10.74 3.7-12.6 8.86c-.02.04-.03.08-.04.12-.48 1.38-.75 2.86-.75 4.4s.26 3.02.75 4.4c.01.04.03.08.04.12 1.86 5.16 6.81 8.86 12.6 8.86s10.74-3.7 12.6-8.86c.01-.04.03-.08.04-.12zm-12.65 7.06c-.51 0-1.33-.92-2.02-2.98-.33-.99-.6-2.14-.79-3.38h5.62c-.19 1.24-.46 2.39-.79 3.38-.68 2.06-1.51 2.98-2.02 2.98zm-3.04-8.28c-.09-1.02-.14-2.09-.14-3.18s.05-2.16.14-3.18h6.09c.09 1.02.14 2.09.14 3.18s-.05 2.16-.14 3.18zm-8.43-3.19c0-1.1.16-2.17.45-3.18h6.05c-.09 1.04-.14 2.11-.14 3.18s.05 2.14.14 3.18h-6.05c-.29-1-.45-2.07-.45-3.18zm11.47-11.47c.51 0 1.33.92 2.02 2.98.33.99.6 2.14.79 3.38h-5.62c.19-1.24.46-2.39.79-3.38.69-2.05 1.51-2.98 2.02-2.98zm4.97 8.29h6.05c.29 1.01.45 2.08.45 3.18s-.16 2.17-.45 3.18h-6.05c.09-1.04.14-2.11.14-3.18s-.05-2.14-.14-3.18zm5.3-1.92h-5.52c-.34-2.35-.93-4.47-1.75-5.97 3.19.87 5.83 3.07 7.27 5.97zm-13.26-5.97c-.82 1.5-1.41 3.61-1.75 5.97h-5.52c1.44-2.9 4.08-5.1 7.27-5.97zm-7.28 16.18h5.52c.34 2.35.93 4.47 1.75 5.97-3.18-.87-5.82-3.07-7.27-5.97zm13.27 5.96c.82-1.5 1.41-3.61 1.75-5.97h5.52c-1.44 2.91-4.08 5.11-7.27 5.97z"/></g><path d="m184.49 280.96s2.65-54.62-3.84-71.64c-6.49-17.01-47.98-.93-47.98-.93s-8.97 32.54-4.6 72.57h23.72l4.16-43.07h2.23l3.7 43.07z" fill="#252525"/><path d="m129.18 189.26s-1.2 4.98-2.65 10.94c-1.67 6.88-3.68 15.07-4.58 18.4-1.68 6.22-4.88 30.11-4.88 30.11 3.87 5.05 3.87 9.76 3.42 11.11-.46 1.35-1.91-.67-1.91-2.02s-1.68-4.2-2.63-2.87c-.95 1.35-.9 5.38 1.29 7.58 2.19 2.18 2.36 5.04 2.36 5.04-14.8-5.04-7.7-18.67-7.7-18.67-3.33-6.89 1.81-42.56 2.99-49.96.51-3.23 1.09-7.96 1.57-12.26.64-5.59 1.12-10.48 1.12-10.48z" fill="#f4a79c"/><path d="m129.18 189.26s-1.2 4.98-2.65 10.94l-10.08-13.54c.64-5.59 1.12-10.48 1.12-10.48z" fill="#e58177"/><path d="m151.66 79.84c-17.37 2.95-17.33 16.26-17.04 20.88s-32.49 25.67 5.59 38.41h25.92s27.21-4.44 15.04-29.64c-2.58-3.69-8.74-11.75-9.59-14.54s-5.6-17.54-19.92-15.11z" fill="#092547"/><path d="m183.42 150.13-3.84 59.58-46.92-1.33-16.47-30.91s-1.26-20.87 2.01-25.85c1.61-2.47 8.26-6.01 14.57-8.96 6.45-3.02 12.56-5.43 12.56-5.43l-.41-13.13c-4.75-2.34-5.72-9.59-5.72-9.59-6.69-1.36-7.67-6.48-5.72-8.95 1.27-1.61 4.64 1.29 4.97 1.55-.02-.03-.04-.05-.08-.09-.85-.85-.78-2.67-.13-4.09 2.86-3.18 3.7-11.03 3.7-11.03 4.6 5.57 23.68 6.16 23.68 6.16 0 2.99 3.5 5.51 3.5 5.51s-.24 2.11-.42 3.22c.28-.54.86-1.11 1.14-1.53.39-.59 5.77-1.95 3.89 3.69s-5.9 5.13-5.9 5.13c-1.56 5.84-6.49 9.54-6.49 9.54l-.2 12.4c5.63 2.09 10.04 4.44 13.4 6.63 6.25 4.04 8.88 7.48 8.88 7.48z" fill="#f4a79c"/><path d="m183.42 150.13-3.84 59.58-46.92-1.33-16.47-30.91s-1.26-20.87 2.01-25.85c1.61-2.47 8.26-6.01 14.57-8.96 0 0 18.11 12.4 41.78 0 6.24 4.03 8.87 7.47 8.87 7.47z" fill="#c537e2"/><path d="m153.27 125.85c-2.67-.04-5.57-.46-8-1.69.16.08-.09-.15 0 0 .41.74 1.59 1.97 2.15 2.61 4.32 4.94 11.53 2.75 13.63-3.07-.11.29-1.49.72-1.79.85-.69.3-1.39.56-2.11.78-1.28.38-2.58.55-3.88.52z" fill="#e58177"/><path d="m141.75 103.06c-.12 0-.23-.03-.34-.1-.3-.19-.4-.58-.21-.88.09-.15 2.27-3.59 8.56-2.84.35.04.61.36.57.72-.04.35-.36.61-.72.57-5.42-.65-7.23 2.11-7.3 2.23-.13.19-.34.3-.56.3z" fill="#092547"/><path d="m163.75 102.39c-.19 0-.39-.09-.51-.25-2-2.6-7.18-1.73-7.23-1.72-.35.06-.69-.17-.75-.53-.06-.35.17-.69.52-.75.24-.04 6-1.02 8.48 2.2.22.28.17.69-.12.91-.11.09-.25.14-.39.14z" fill="#092547"/><path d="m153.34 112.09c-.67 0-1.26-.21-1.64-.63-.52-.57-.54-1.41-.06-2.32.95-1.79.36-4.54.35-4.56-.05-.23.09-.46.33-.51.23-.05.46.09.51.33.03.12.67 3.08-.43 5.16-.21.4-.4.96-.06 1.33.34.36 1.19.51 2.17.09.22-.1.47.01.57.23.09.22-.01.47-.23.57-.52.2-1.04.31-1.51.31z" fill="#e58177"/><path d="m147.06 113.75c1.93.46 6.72 1.3 11.56-.22.03-.01.05.01.04.04-.26.5-1.57 4.47-5.62 4.47-3.1 0-5.55-2.55-6.37-3.71-.2-.28.06-.66.39-.58z" fill="#fff"/><path d="m169.38 110.4c-.05 0-.11-.01-.16-.03-.22-.09-.33-.34-.24-.56.14-.35 1.45-3.42 3.41-3.48.22 0 .44.18.44.42.01.24-.18.44-.42.44-1.19.04-2.31 2.13-2.64 2.94-.06.17-.22.27-.39.27z" fill="#e58177"/><path d="m138.17 110.4c-.16 0-.32-.09-.39-.25-.95-2.06-3.01-1.68-3.1-1.66-.23.05-.46-.1-.51-.34-.05-.23.1-.46.34-.51.97-.2 3.07-.01 4.06 2.14.1.22.01.47-.21.57-.07.04-.13.05-.19.05z" fill="#e58177"/><circle cx="146.56" cy="105.65" fill="#092547" r="1.54"/><circle cx="159.51" cy="105.65" fill="#092547" r="1.54"/><path d="m323.39 205.55 1.1 2.26s3.77 11.42 4.72 23.52c.94 12.11.79 50.01.79 50.01h-23.9l-2.83-40.58h-3.3l-3.62 40.58h-10.69l6.37-73.53h32.46" fill="#886d69"/><path d="m370.22 157.8-10.29 19.17c-.61 1.13-.17 2.54.98 3.13l6.96 3.54c1.1.56 2.45.15 3.05-.94l10.59-19.28c.64-1.16.17-2.61-1.03-3.17l-7.26-3.44c-1.1-.52-2.42-.09-3 .99z" fill="#0074ff"/><path d="m368.92 184.76c-.48 0-.98-.11-1.44-.35l-6.96-3.54c-.76-.39-1.32-1.05-1.58-1.87s-.17-1.68.23-2.43l10.29-19.17c.8-1.48 2.61-2.08 4.13-1.36l7.26 3.44c.78.37 1.39 1.06 1.65 1.88s.18 1.73-.24 2.49l-10.59 19.28c-.57 1.04-1.64 1.63-2.75 1.63zm3.32-27.31c-.51 0-1 .27-1.26.75l-10.29 19.17c-.18.34-.22.73-.1 1.1s.37.67.72.85l6.96 3.54c.69.35 1.53.09 1.9-.59l10.59-19.28c.19-.35.23-.75.11-1.13s-.39-.68-.75-.85l-7.26-3.44c-.2-.07-.41-.12-.62-.12z"/><path d="m368.12 184.7s-2.79 3.27-7.39 2.77c0 0-8.72 17.85-11.23 21.95-2.5 4.11-6.71 9.92-10.92 9.22-4.21-.71-6.22-6.53-7.92-13.09-1.71-6.56-5.01-22.6-5.01-22.6s.2-6.32 3.21-6.82c3-.5 12.23.3 12.23.3l2.05 11.68.96 5.45s10.73-10.82 10.73-12.23.2-15.14 13.43-10.12c0 0 1.3 1.7-.8 2.2-2.11.5-4.3-2.68-6.61 1.32-1.21 2.11-1.72 3.44-1.97 4.06-.12.3.56.96.92 1.17z" fill="#b7824e"/><path d="m344.09 193.57s-6.13 9.6-6.13 7.59c0-1.39 3.18-8.64 5.17-13.04z" fill="#a06b3c"/><circle cx="317.35" cy="80.19" fill="#242b29" r="11.33"/><ellipse cx="302.91" cy="101.11" fill="#242b29" rx="18.38" ry="19.09"/><path d="m344.7 177.72-16.3 2.22s-1.36 8.1-1.82 10.82c-.45 2.73-2.44 15.23-2.08 17.05h-32.46l-21.12-54.22s8.45-10.83 21.37-15.58c.12-.05.24-.09.36-.14 0 0 2.68-.33 2.84-2.25.17-1.92-.25-10.11-.25-10.11s-5.35-3.76-6.6-9.36c0 0-4.51.41-6.02-5.1-1.49-5.51 3.66-4.25 4.82-1.98-.04-.29-.38-2.61.44-3.61.88-1.06 3.94-5.38 3.94-6.45 0 0 15.44-.56 21.26-4.87-.07.2-1.35 3.37-2.61 3.75 0 0 2.25.25 3.75-2.5 0 0 .19 4.5 1.63 6.22 1.43 1.73 3 4.66 1.75 7.48 0 0 1.31.5 2.06-2.19 0 0 2.69-1.44 3.44 1.37.75 2.82-2.69 7.2-6.14 7.95 0 0-1.25 6.95-6.2 9.76 0 0-.75 9.7.5 10.52.28.18 1.48.72 3.25 1.6 6.14 3.03 19.1 10.11 24.07 20.27 6.41 13.09 6.12 19.35 6.12 19.35z" fill="#b7824e"/><path d="m344.7 177.72-16.3 2.22s-1.36 8.1-1.82 10.82c-.45 2.73-2.44 15.23-2.08 17.05h-32.46l-21.12-54.22s8.45-10.83 21.37-15.58c1.18 1.27 3.26 3.31 4.92 3.96 2.49.99 5.01 2.1 5.78 5.3 0 0 .76-4.19 4.82-5.17 3.1-.75 5.56-2.58 6.71-4 6.14 3.03 19.1 10.11 24.07 20.27 6.4 13.09 6.11 19.35 6.11 19.35z" fill="#5ad3e5"/><path d="m302.91 127.85c-2.67-.14-5.3-1.04-7.68-2.35.15.08.34.78.42.93.38.76.85 1.48 1.38 2.13 4.14 5.09 11.42 3.15 13.73-2.59-.12.29-1.51.67-1.82.79-.7.27-1.41.52-2.14.7-1.28.34-2.59.46-3.89.39z" fill="#a06b3c"/><path d="m303.39 114.54c-.47 0-.95-.02-1.37-.08-.24-.03-.45-.17-.59-.39-.7-1.05.14-4.51.32-5.2.06-.23.3-.37.53-.31s.37.29.31.53c-.54 2.1-.74 4.25-.42 4.52 1.09.15 2.87-.01 2.89-.01.22-.02.45.15.47.39s-.15.45-.39.47c-.06.01-.86.08-1.75.08z" fill="#844618"/><path d="m297.82 116.05h10.32s-2.02 3.94-5.33 3.69-4.99-3.69-4.99-3.69z" fill="#fff"/><path d="m291.3 103.87c-.16 0-.31-.04-.46-.13-.4-.25-.53-.78-.28-1.18.03-.05 2.91-4.58 8.99-1.4.42.22.58.74.36 1.16s-.74.59-1.16.36c-4.62-2.42-6.64.65-6.73.78-.15.27-.43.41-.72.41z" fill="#242b29"/><path d="m314.13 103.29c-.26 0-.52-.12-.69-.35-2.1-2.8-6.76-1.25-6.81-1.24-.45.15-.94-.09-1.09-.54s.09-.94.54-1.1c.24-.08 5.89-1.97 8.75 1.83.29.38.21.92-.17 1.21-.17.13-.35.19-.53.19z" fill="#242b29"/><circle cx="295.73" cy="107.52" fill="#242b29" r="1.46"/><circle cx="309.27" cy="107.52" fill="#242b29" r="1.46"/><path d="m287.12 113.14c-.19 0-.37-.13-.42-.32-.65-2.52-2.34-2.28-2.36-2.27-.24.04-.46-.12-.49-.36-.04-.24.12-.46.36-.49.03-.01 2.49-.36 3.33 2.91.06.23-.08.47-.31.53-.04-.01-.07 0-.11 0z" fill="#844618"/><path d="m317.8 113.14c-.07 0-.14-.02-.21-.05-.21-.12-.28-.38-.17-.59.22-.39 2.16-3.77 4.09-3.21.23.07.36.3.3.53s-.3.36-.53.3c-.96-.28-2.41 1.57-3.1 2.81-.08.13-.22.21-.38.21z" fill="#844618"/><path d="m294.87 114.92c-3.6 0-6.53-2.93-6.53-6.53s2.93-6.53 6.53-6.53 6.53 2.93 6.53 6.53-2.93 6.53-6.53 6.53zm0-12.2c-3.13 0-5.67 2.54-5.67 5.67s2.54 5.67 5.67 5.67 5.67-2.54 5.67-5.67-2.54-5.67-5.67-5.67z" fill="#fff"/><path d="m310.24 114.59c-3.6 0-6.53-2.93-6.53-6.53s2.93-6.53 6.53-6.53 6.53 2.93 6.53 6.53-2.93 6.53-6.53 6.53zm0-12.21c-3.13 0-5.67 2.54-5.67 5.67s2.54 5.67 5.67 5.67 5.67-2.54 5.67-5.67c0-3.12-2.54-5.67-5.67-5.67z" fill="#fff"/><path d="m300.97 107.96h3.16v.86h-3.16z" fill="#fff"/><path d="m190.38 261.69h77.35v19.65h-77.35z" fill="#022e42"/><path d="m216.04 67.06s5.66-11.02 16.99-7.04 17.3 8.42 15.31 20.97-2.91 15-2.91 15l-38.73-1.07s-.46-8.27-1.22-10.41-5.98-19.28 10.56-17.45z" fill="#242b29"/><path d="m94.8 137.29c.46-.34 1.12-.25 1.47.21l6.28 8.13c.27.34.76.41 1.1.14.29-.23.38-.62.22-.95l-5.12-10.68c-.3-.68-.04-1.48.61-1.84.68-.38 1.53-.15 1.93.51l5.91 9.77c.25.42.79.58 1.23.37l.06-.03c.44-.21.65-.7.51-1.16l-4.09-12.94c-.21-.67.11-1.39.76-1.67.68-.3 1.48 0 1.8.68l5.57 12.01c.25.53.9.72 1.39.4.3-.2.47-.54.43-.9l-1.2-11.3c-.08-.76.52-1.42 1.28-1.42.6 0 1.12.41 1.25.99.84 3.64 3.74 16.16 4.3 18.65.66 2.92 2.43-6.89 5.9-7.82 4.98-1.33-1.56 10.92-1.75 12.43s-1.98 8.21-3.3 10.76l29.35 34.07 8.4-10.85 24.33 18.31s-18.31 23.74-26.22 26.06c-7.91 2.33-13.03-1.4-18.46-10.24s-28.55-51.66-28.55-51.66-10.24-9-10.86-19.55l-4.84-9.12c-.25-.47-.12-1.05.31-1.36z" fill="#f4a99d"/><path d="m111.9 158.13c-.23 0-.42-.18-.43-.42 0-.1-.26-9.79 8.96-11.11.23-.04.45.13.49.37.03.24-.13.45-.37.49-8.44 1.21-8.23 9.85-8.22 10.22.01.24-.18.44-.42.45 0-.01-.01 0-.01 0z" fill="#c45853"/><path d="m298.15 202.81-24.91 4.61-1.85 56.66-82.87.74-1.29-62.75-3.68 4.06s-24.18-14.58-27.32-23.26c0 0 13.11-36.17 49.46-45.59 0 0 7.75-1.1 7.75-4.43 0-.53.01-1.37.03-2.42.09-5.51.35-16.59.35-16.59s-4.12-6.01-4.5-9.6c0 0-3.97 2.84-7-1.14-3.04-3.98-2.3-10.86 4.39-8.18 0 0 1.48 1.08 1.38-1.38-.09-2.46-2.63-16.5 6.01-21.83 0 0 6.39 9.28 19.39 8.25 13-1.04 12.37 8.77 11.45 12.69-.93 3.92.98 1.51.98 1.51s3.75-1.87 5.71.73c1.97 2.6 1.35 11.57-7.73 9.61 0 0-1.03 7.12-3.81 10 0 0-.03.54-.07 1.46-.07 1.56-.17 4.2-.23 6.98-.09 4.87-.04 10.15.61 10.85.41.44 3.79 1.73 8.51 3.81 9.6 4.24 24.72 11.74 31.52 22.01 10.15 15.33 16.06 30.09 17.72 43.2z" fill="#f4a79c"/><path d="m240.09 114.51s-.03.54-.07 1.46c0 0-13.42 23.33-24.3.02.41.5 10.79 13.1 24.37-1.48z" fill="#c9827b"/><path d="m298.15 202.81-24.91 4.61-1.85 56.66-82.87.74-1.29-62.75-3.68 4.06s-24.18-14.58-27.32-23.26c0 0 13.11-36.17 49.46-45.59l18.34 12.96c1.91 1.35 4.44 1.36 6.36.05l18.53-12.69c9.6 4.24 24.72 11.74 31.52 22.01 10.14 15.33 16.05 30.09 17.71 43.2z" fill="#185fed"/><path d="m269.37 207.81 1.55 73.53h17.69l4.4-77.58z" fill="#f4a89c"/><path d="m211 88.27c-.13 0-.26-.03-.38-.09-.43-.21-.6-.73-.39-1.15.03-.07 3.53-6.94 12.09-3.94.45.16.69.65.53 1.1s-.65.68-1.1.53c-7.09-2.49-9.86 2.85-9.97 3.07-.16.31-.46.48-.78.48z" fill="#242b29"/><path d="m240.69 88.27c-.31 0-.61-.17-.76-.46-2.61-4.95-9.2-2.87-9.48-2.78-.45.15-.94-.1-1.09-.55s.1-.94.55-1.09c2.84-.93 8.91-1.38 11.55 3.61.22.42.06.94-.36 1.17-.14.07-.28.1-.41.1z" fill="#242b29"/><path d="m226.95 107.59c-4 0-6.93-2.82-6.97-2.86-.17-.17-.17-.44-.01-.61.17-.17.44-.17.61-.01.25.24 6.08 5.82 12.39-.01.17-.16.45-.15.61.02.16.18.15.45-.02.61-2.32 2.14-4.6 2.86-6.61 2.86z" fill="#c45853"/><path d="m226.91 102.95c-.52 0-.94-.15-1.27-.46-1.83-1.69.47-7.53.74-8.19.09-.22.34-.33.56-.24s.33.34.24.56c-.93 2.28-2 6.26-.95 7.23.54.5 1.71.09 2.59-.35.21-.11.47-.02.58.19s.02.47-.19.58c-.91.46-1.67.68-2.3.68z" fill="#c45853"/><path d="m244.74 101.15c-.06 0-.13-.01-.19-.05-.21-.11-.3-.37-.19-.58.9-1.8 3.41-4.86 6.48-3.59.22.09.32.34.23.56s-.34.32-.56.23c-3.09-1.28-5.36 3.14-5.38 3.18-.08.16-.23.25-.39.25z" fill="#c45853"/><path d="m208.93 102.17c-.21 0-.39-.15-.43-.36-.52-3.19-5.31-4.32-5.36-4.33-.23-.05-.38-.28-.32-.52.05-.23.28-.38.52-.33.22.05 5.41 1.27 6.02 5.03.04.24-.12.46-.36.5-.02.01-.05.01-.07.01z" fill="#c45853"/><circle cx="218.46" cy="93.09" fill="#242b29" r="1.85"/><circle cx="234.18" cy="93.09" fill="#242b29" r="1.85"/><path d="m216.61 102.73c-4.73 0-8.58-3.85-8.58-8.58s3.85-8.58 8.58-8.58 8.58 3.85 8.58 8.58c0 4.72-3.85 8.58-8.58 8.58zm0-15.88c-4.02 0-7.29 3.27-7.29 7.29s3.27 7.29 7.29 7.29 7.29-3.27 7.29-7.29-3.27-7.29-7.29-7.29z" fill="#fff"/><path d="m236.03 102.73c-4.73 0-8.58-3.85-8.58-8.58s3.85-8.58 8.58-8.58 8.58 3.85 8.58 8.58c.01 4.72-3.84 8.58-8.58 8.58zm0-15.88c-4.02 0-7.29 3.27-7.29 7.29s3.27 7.29 7.29 7.29 7.29-3.27 7.29-7.29-3.27-7.29-7.29-7.29z" fill="#fff"/><path d="m224.54 93.49h3.55v1.29h-3.55z" fill="#fff"/><path d="m245.33 192.46c-3.42 0-6.61-1.36-8.98-3.82-2.37-2.47-3.6-5.71-3.47-9.13l.47-12.11h24.44v12.6c0 6.87-5.59 12.46-12.46 12.46zm-10.32-23.33-.41 10.45c-.12 2.94.95 5.74 2.99 7.86s4.79 3.29 7.74 3.29c5.92 0 10.74-4.82 10.74-10.74v-10.87h-21.06z" fill="#0b3c89"/><path d="m251.58 188.4h37.12v1.73h-37.12z" fill="#0b3c89" transform="matrix(.0415 -.9991 .9991 .0415 69.8319 451.3111)"/><path d="m185.28 169.72h1.73v32.39h-1.73z" fill="#0b3c89" transform="matrix(.9978 -.0666 .0666 .9978 -11.9705 12.8123)"/></svg>