<svg width="4" height="14" viewBox="0 0 4 14" fill="none" xmlns="http://www.w3.org/2000/svg">
<path d="M1.99992 3.66668C2.91659 3.66668 3.66658 2.91668 3.66658 2.00001C3.66658 1.08334 2.91659 0.333344 1.99992 0.333344C1.08325 0.333344 0.333252 1.08334 0.333252 2.00001C0.333252 2.91668 1.08325 3.66668 1.99992 3.66668ZM1.99992 5.33334C1.08325 5.33334 0.333252 6.08334 0.333252 7.00001C0.333252 7.91668 1.08325 8.66668 1.99992 8.66668C2.91659 8.66668 3.66658 7.91668 3.66658 7.00001C3.66658 6.08334 2.91659 5.33334 1.99992 5.33334ZM1.99992 10.3333C1.08325 10.3333 0.333252 11.0833 0.333252 12C0.333252 12.9167 1.08325 13.6667 1.99992 13.6667C2.91659 13.6667 3.66658 12.9167 3.66658 12C3.66658 11.0833 2.91659 10.3333 1.99992 10.3333Z" fill="#323232"/>
</svg>
