<svg width="250" height="150" viewBox="0 0 250 150" fill="none" xmlns="http://www.w3.org/2000/svg">
<g clip-path="url(#clip0_28_66)">
<path d="M38.7032 47.0056V54.5264C41.8831 54.5264 44.9327 55.781 47.1812 58.0142C49.4296 60.2474 50.6928 63.2763 50.6928 66.4345C50.6928 69.5927 49.4296 72.6216 47.1812 74.8548C44.9327 77.088 41.8831 78.3426 38.7032 78.3426V85.8635H77.8272V47.0056H38.7032Z" fill="#F2F2F2"/>
<path d="M38.7032 75.8356C43.9308 75.8356 48.1687 71.6266 48.1687 66.4345C48.1687 61.2424 43.9308 57.0334 38.7032 57.0334C33.4756 57.0334 29.2377 61.2424 29.2377 66.4345C29.2377 71.6266 33.4756 75.8356 38.7032 75.8356Z" fill="#F2F2F2"/>
<path d="M182.158 75.8463L166.802 66.446V139.137H182.158V75.8463Z" fill="#F2F2F2"/>
<path d="M143.244 139.137H158.599V61.424L143.244 52.0237V139.137Z" fill="#F2F2F2"/>
<path d="M135.041 47.0014L58.2651 0V42.4095H82.8753V91.2953H58.2651V139.137H135.041V47.0014Z" fill="#F2F2F2"/>
<path d="M190.361 80.8684V139.137H198.354L220.019 99.0251L190.361 80.8684Z" fill="#F2F2F2"/>
<path d="M220.191 111.328C207.448 120.789 203.855 137.409 203.855 137.409C203.855 137.409 220.922 138.691 233.665 129.231C246.407 119.771 250 103.15 250 103.15C250 103.15 232.933 101.868 220.191 111.328Z" fill="#3F3D56"/>
<path d="M203.865 137.249C203.865 137.249 203.678 137.145 203.339 136.939C203.069 136.774 202.699 136.544 202.251 136.25C198.247 133.629 187.874 125.922 183.619 114.029C178.296 99.139 184.582 83.3276 184.582 83.3276C184.582 83.3276 198.293 90.9834 204.118 104.735C204.371 105.327 204.606 105.931 204.827 106.547C209.459 119.503 205.302 133.156 204.145 136.484C203.97 136.982 203.865 137.249 203.865 137.249Z" fill="#00B0FF"/>
<path d="M203.927 137.719L203.732 137.578C203.592 137.478 189.763 127.387 186.209 112.091C182.656 96.7954 190.635 81.706 190.716 81.5555L190.83 81.3441L191.025 81.4847C191.164 81.5847 204.994 91.676 208.548 106.972C212.101 122.268 204.122 137.357 204.041 137.507L203.927 137.719ZM190.975 81.97C190.016 83.8705 183.333 97.8534 186.619 111.997C189.905 126.141 202.081 135.802 203.782 137.093C204.741 135.192 211.424 121.209 208.138 107.066C204.852 92.9217 192.676 83.2611 190.975 81.97Z" fill="#3F3D56"/>
<path opacity="0.1" d="M204.145 136.484C203.834 136.664 203.562 136.815 203.339 136.939C202.848 137.205 202.576 137.339 202.576 137.339C202.576 137.339 202.447 136.954 202.251 136.25C201.172 132.397 198.084 118.967 203.253 106.631C203.525 105.985 203.813 105.353 204.118 104.735C204.372 105.327 204.606 105.931 204.827 106.547C209.459 119.503 205.302 133.156 204.145 136.484Z" fill="black"/>
<path d="M225.51 115.755C219.399 130.344 204.056 137.878 204.056 137.878C204.056 137.878 198.62 121.758 204.731 107.17C210.842 92.5808 226.185 85.047 226.185 85.047C226.185 85.047 231.621 101.166 225.51 115.755Z" fill="#00B0FF"/>
<path d="M225.874 85.6098L204.011 137.375L204.399 137.536L226.262 85.7713L225.874 85.6098Z" fill="#3F3D56"/>
<path d="M247.68 142.164C247.68 144.12 236.349 145.91 217.615 147.283C214.209 147.532 210.557 147.767 206.687 147.989C203.34 148.18 199.834 148.359 196.168 148.528C192.615 148.688 188.926 148.837 185.101 148.974C173.02 149.41 159.666 149.724 145.479 149.881C142.036 149.918 138.547 149.948 135.011 149.969C131.33 149.99 127.606 150 123.84 150C55.4444 150 0 146.493 0 142.164C0 137.835 55.4444 134.328 123.84 134.328C153.284 134.328 180.326 134.979 201.58 136.063C202.362 136.104 203.136 136.144 203.903 136.182C203.907 136.185 203.913 136.186 203.918 136.186C230.689 137.624 247.68 139.768 247.68 142.164Z" fill="#3F3D56"/>
<path opacity="0.15" d="M247.68 142.164C247.68 144.12 236.349 145.91 217.615 147.283C214.209 147.532 210.557 147.767 206.687 147.989C203.34 148.18 199.834 148.359 196.168 148.528C192.615 148.688 188.926 148.837 185.101 148.974C173.02 149.41 159.666 149.724 145.479 149.881C142.036 149.918 138.547 149.948 135.011 149.969C131.33 149.99 127.606 150 123.84 150C55.4444 150 0 146.493 0 142.164C0 137.835 55.4444 134.328 123.84 134.328C153.284 134.328 180.326 134.979 201.58 136.063C202.362 136.104 203.136 136.144 203.903 136.182C203.907 136.185 203.913 136.186 203.918 136.186C230.689 137.624 247.68 139.768 247.68 142.164Z" fill="black"/>
<path d="M238.161 140.785C238.161 142.421 227.598 143.916 210.133 145.065C206.959 145.272 203.554 145.469 199.946 145.655C196.827 145.813 193.558 145.963 190.14 146.104C186.827 146.24 183.388 146.364 179.823 146.478C168.559 146.843 156.109 147.104 142.882 147.236C139.674 147.267 136.422 147.292 133.124 147.309C129.692 147.328 126.22 147.337 122.71 147.336C58.9467 147.336 7.25684 144.403 7.25684 140.785C7.25684 137.166 58.9467 134.233 122.71 134.233C136.81 134.233 150.318 134.377 162.808 134.641H162.84C174.652 134.889 185.555 135.244 195.184 135.685C195.914 135.719 196.636 135.751 197.351 135.783C197.355 135.787 197.36 135.788 197.365 135.788C201.776 136.001 205.903 136.23 209.706 136.477C209.748 136.479 209.79 136.483 209.832 136.485C227.478 137.636 238.161 139.139 238.161 140.785Z" fill="#3F3D56"/>
<path opacity="0.1" d="M209.706 136.477C208.143 146.57 198.289 143.187 186.364 143.187C173.767 143.187 163.481 146.962 162.84 134.641C174.652 134.889 185.555 135.244 195.184 135.685C195.914 135.719 196.636 135.751 197.351 135.783C197.355 135.787 197.36 135.788 197.365 135.788C201.776 136.001 205.903 136.231 209.706 136.477Z" fill="black"/>
<path d="M66.7372 133.407C66.7372 137.045 64.5596 138.316 61.8729 138.316C61.8107 138.316 61.7485 138.315 61.6867 138.313C61.5622 138.311 61.4386 138.305 61.3169 138.297C58.8921 138.126 57.0087 136.791 57.0087 133.407C57.0087 129.906 61.5134 125.487 61.8528 125.159L61.8532 125.159C61.8662 125.146 61.8729 125.14 61.8729 125.14C61.8729 125.14 66.7372 129.769 66.7372 133.407Z" fill="#00B0FF"/>
<path d="M61.6956 137.759L63.4747 135.29L61.6911 138.03L61.6866 138.313C61.5622 138.311 61.4386 138.305 61.3168 138.297L61.5085 134.657L61.5071 134.628L61.5102 134.623L61.5286 134.279L59.7405 131.533L61.534 134.021L61.5384 134.094L61.683 131.344L60.1524 128.506L61.7018 130.862L61.8527 125.159L61.8532 125.14V125.159L61.8281 129.655L63.3521 127.873L61.8218 130.042L61.7815 132.505L63.2048 130.142L61.7757 132.867L61.7533 134.236L63.8186 130.947L61.7453 134.714L61.6956 137.759Z" fill="#3F3D56"/>
<path d="M162.806 130.862C162.806 117.017 173.353 105.792 186.364 105.792C199.375 105.792 209.923 117.017 209.923 130.862C209.923 144.708 199.375 140.681 186.364 140.681C173.353 140.681 162.806 144.708 162.806 130.862Z" fill="#3F3D56"/>
<path d="M32.2632 114.345H31.8425V142.586H32.2632V114.345Z" fill="#3F3D56"/>
<path d="M32.0529 118.339C34.2737 118.339 36.0739 116.551 36.0739 114.345C36.0739 112.139 34.2737 110.351 32.0529 110.351C29.8322 110.351 28.0319 112.139 28.0319 114.345C28.0319 116.551 29.8322 118.339 32.0529 118.339Z" fill="#3F3D56"/>
<path d="M32.0529 131.75C32.0529 131.75 31.4785 119.48 19.7027 120.906L32.0529 131.75Z" fill="#3F3D56"/>
<path d="M149.137 118.992C149.241 119.36 149.359 119.727 149.484 120.09C148.922 119.542 148.371 118.979 147.81 118.434C148.035 118.504 148.259 118.573 148.472 118.656C148.703 118.747 148.926 118.86 149.137 118.992ZM146.416 117.161C143.107 114.302 139.271 112.089 135.88 109.318C137.732 110.223 139.533 111.278 141.321 112.289C143.441 113.489 145.586 114.642 147.756 115.748C147.402 116.298 146.948 116.777 146.416 117.161ZM147.832 109.963C147.885 109.91 147.938 109.856 147.991 109.802C147.992 110.208 147.995 110.588 148 110.932C147.703 110.835 147.408 110.734 147.113 110.632C147.366 110.424 147.607 110.201 147.832 109.963ZM118.677 117.702C120.041 116.171 121.226 114.493 122.209 112.698C123.523 114.978 125.658 116.622 127.474 118.531C124.548 118.148 121.617 117.831 118.677 117.702Z" fill="url(#paint0_linear_28_66)"/>
<path d="M24.6684 138.838C24.6684 142.477 22.4908 143.747 19.8042 143.747C19.742 143.747 19.6797 143.747 19.6179 143.745C19.4935 143.743 19.3699 143.737 19.2481 143.728C16.8234 143.558 14.9399 142.222 14.9399 138.838C14.9399 135.337 19.4447 130.919 19.784 130.591L19.7845 130.591C19.7975 130.578 19.8042 130.571 19.8042 130.571C19.8042 130.571 24.6684 135.2 24.6684 138.838Z" fill="#00B0FF"/>
<path d="M19.6268 143.191L21.406 140.722L19.6224 143.462L19.6179 143.745C19.4934 143.743 19.3699 143.737 19.2481 143.728L19.4397 140.088L19.4384 140.06L19.4415 140.055L19.4599 139.711L17.6718 136.964L19.4652 139.453L19.4697 139.526L19.6143 136.776L18.0836 133.937L19.6331 136.293L19.784 130.591L19.7844 130.571V130.591L19.7594 135.087L21.2833 133.304L19.7531 135.474L19.7128 137.937L21.136 135.573L19.707 138.299L19.6846 139.668L21.7498 136.379L19.6765 140.146L19.6268 143.191Z" fill="#3F3D56"/>
<path d="M27.1343 109.889C28.296 109.889 29.2377 108.953 29.2377 107.799C29.2377 106.646 28.296 105.71 27.1343 105.71C25.9726 105.71 25.0309 106.646 25.0309 107.799C25.0309 108.953 25.9726 109.889 27.1343 109.889Z" fill="#00B0FF"/>
<path d="M162.383 78.5581C162.383 78.5581 170.014 76.8802 170.855 83.5655C171.696 90.2507 166.802 91.5126 166.802 91.5126L163.703 92.3399L151.714 89.2062L153.396 84.4012L162.383 78.5581Z" fill="#2F2E41"/>
<path d="M159.633 78.927C165.328 78.927 169.945 74.3416 169.945 68.6853C169.945 63.029 165.328 58.4437 159.633 58.4437C153.938 58.4437 149.321 63.029 149.321 68.6853C149.321 74.3416 153.938 78.927 159.633 78.927Z" fill="#2F2E41"/>
<path d="M123.398 89.9523L125.493 90.3708L132.617 100.833L129.474 101.251L123.398 89.9523Z" fill="#2F2E41"/>
<path d="M72.7203 132.399C73.2852 134.245 73.981 136.05 74.8025 137.799C77.1637 137.308 79.4867 136.65 81.7537 135.831C81.8236 135.806 80.4536 134.026 80.3097 133.881C79.7669 133.332 79.0643 132.692 78.3467 132.381C77.6231 132.069 76.7319 132.307 75.9573 132.347C74.8794 132.401 73.8004 132.419 72.7203 132.399Z" fill="#FBBEBE"/>
<path d="M78.359 135.193C77.1781 134.826 76.4604 133.646 75.9801 132.508C75.4998 131.37 75.1124 130.129 74.2013 129.293C73.8522 129.31 73.571 129.592 73.3983 129.895C73.2256 130.198 73.1228 130.541 72.9232 130.827C72.5432 131.372 71.8753 131.636 71.3976 132.098C70.8968 132.583 70.623 133.269 70.1046 133.735C69.4535 134.32 68.533 134.465 67.6787 134.659C66.3573 134.959 65.0811 135.429 63.8823 136.057C63.4408 136.321 62.9686 136.531 62.476 136.683C61.934 136.786 61.379 136.805 60.8313 136.737L57.0541 136.47C56.718 136.427 56.3769 136.442 56.0458 136.514C55.2693 136.73 54.7872 137.591 54.8443 138.394C54.9013 139.197 55.4044 139.917 56.0396 140.413C56.6971 140.88 57.4225 141.245 58.1907 141.495C61.481 142.729 64.8685 143.69 68.3184 144.368L68.3202 145.111C70.7191 146.283 73.3565 146.893 76.0297 146.894C76.2274 146.909 76.4256 146.875 76.6068 146.795C76.8719 146.652 76.9946 146.344 77.0927 146.06C77.9989 143.428 78.5292 140.682 78.6681 137.904C78.7351 137.2 78.6801 136.489 78.5055 135.803C78.2998 135.128 79.0081 135.412 78.3526 135.147" fill="#2F2E41"/>
<path d="M150.802 121.051C139.604 121.717 128.535 118.461 117.322 118.113C115.928 118.07 114.519 118.073 113.158 118.377C111.718 118.698 110.375 119.345 109.036 119.964C103.023 122.743 96.801 125.045 90.5871 127.344L83.449 129.984C82.0226 130.512 80.5445 131.048 79.0261 130.956C78.3455 130.914 77.51 130.812 77.1271 131.375C75.9658 133.084 76.5146 135.595 77.2819 137.512C77.5309 138.135 77.9521 138.806 78.6196 138.877C79.0895 138.927 79.5264 138.657 79.983 138.535C81.2823 138.19 82.5776 139.058 83.9148 139.199C85.5668 139.374 87.1008 138.439 88.66 137.867C91.2461 136.917 94.0737 136.947 96.7919 136.498C101.35 135.744 105.574 133.642 109.523 131.247C111.027 130.335 112.548 129.358 114.276 129.025C116.262 128.641 118.302 129.149 120.249 129.696C124.892 131.001 129.464 132.547 133.944 134.328C136.303 135.266 138.645 136.271 141.099 136.92C146.409 138.308 152.025 137.983 157.136 135.991C158.928 135.287 160.876 134.044 160.979 132.123C161.037 131.028 160.182 130.063 159.611 129.126C159.244 128.526 158.877 127.925 158.478 127.345C156.547 124.541 154.204 120.849 150.802 121.051Z" fill="#2F2E41"/>
<path opacity="0.1" d="M150.802 121.051C139.604 121.717 128.535 118.461 117.322 118.113C115.928 118.07 114.519 118.073 113.158 118.377C111.718 118.698 110.375 119.345 109.036 119.964C103.023 122.743 96.801 125.045 90.5871 127.344L83.449 129.984C82.0226 130.512 80.5445 131.048 79.0261 130.956C78.3455 130.914 77.51 130.812 77.1271 131.375C75.9658 133.084 76.5146 135.595 77.2819 137.512C77.5309 138.135 77.9521 138.806 78.6196 138.877C79.0895 138.927 79.5264 138.657 79.983 138.535C81.2823 138.19 82.5776 139.058 83.9148 139.199C85.5668 139.374 87.1008 138.439 88.66 137.867C91.2461 136.917 94.0737 136.947 96.7919 136.498C101.35 135.744 105.574 133.642 109.523 131.247C111.027 130.335 112.548 129.358 114.276 129.025C116.262 128.641 118.302 129.149 120.249 129.696C124.892 131.001 129.464 132.547 133.944 134.328C136.303 135.266 138.645 136.271 141.099 136.92C146.409 138.308 152.025 137.983 157.136 135.991C158.928 135.287 160.876 134.044 160.979 132.123C161.037 131.028 160.182 130.063 159.611 129.126C159.244 128.526 158.877 127.925 158.478 127.345C156.547 124.541 154.204 120.849 150.802 121.051Z" fill="black"/>
<path d="M94.2211 132.94C95.9741 133.534 97.7424 134.081 99.526 134.579C100.524 132.951 102.392 131.818 102.818 129.957C102.844 129.876 102.845 129.788 102.818 129.707C102.773 129.628 102.702 129.565 102.618 129.529C101.34 128.826 99.9212 128.413 98.4636 128.32C97.3125 128.248 96.7872 129.441 96.2654 130.28C96.0541 130.62 94.6901 133.099 94.2211 132.94Z" fill="#FBBEBE"/>
<path d="M96.6781 131.752C95.6429 131.536 94.6298 130.983 94.1013 130.069C93.8536 129.64 93.5903 129.062 93.0959 129.095C92.637 129.125 92.4261 129.669 92.3228 130.116C91.9359 131.792 91.5559 133.481 90.8771 135.062C90.1982 136.643 89.194 138.127 87.7777 139.105C87.1281 139.554 86.4039 139.889 85.7689 140.358C85.1984 140.78 84.701 141.309 84.0709 141.635C83.6491 141.827 83.2139 141.988 82.7686 142.117C82.1134 142.344 81.4874 142.646 80.9036 143.019C80.3903 143.315 79.9551 143.728 79.6337 144.224C79.4759 144.474 79.3836 144.759 79.3653 145.054C79.347 145.348 79.4033 145.643 79.5291 145.91C79.6644 146.13 79.8451 146.32 80.0594 146.465C80.2736 146.611 80.5165 146.71 80.7721 146.756C81.2825 146.843 81.803 146.856 82.3171 146.794C84.3589 146.645 86.3983 146.464 88.4376 146.284C89.3004 146.228 90.1578 146.11 91.003 145.929C91.4498 145.822 91.8875 145.681 92.3325 145.567C93.0953 145.371 93.8771 145.258 94.6643 145.229C94.8929 145.21 95.1232 145.231 95.3446 145.291C95.817 145.444 96.1523 145.911 96.6399 146.006C96.9528 146.036 97.2683 145.994 97.5623 145.883C99.0316 145.484 100.576 145.495 102.096 145.414C102.766 145.378 103.55 145.251 103.857 144.656C104.241 143.913 103.605 143.082 103.352 142.286C103.226 141.777 103.155 141.256 103.142 140.732C103.025 139.437 102.642 138.18 102.017 137.038C101.497 136.09 100.788 135.042 101.153 134.024C101.277 133.679 101.523 133.358 101.499 132.992C101.391 131.385 97.6168 131.947 96.6781 131.752Z" fill="#2F2E41"/>
<path d="M134.009 103.207C132.024 102.338 130.434 100.77 129.547 98.8049C129.359 98.3826 129.206 97.9416 129.026 97.5153C128.438 96.099 127.525 94.8393 126.359 93.8371C126.067 93.5914 125.725 93.3569 125.369 93.4212C125.027 93.4829 124.758 93.8188 124.641 94.1956C124.541 94.5835 124.516 94.9869 124.567 95.3841C124.667 96.3204 124.829 97.2491 125.052 98.1641L125.595 100.62C125.662 100.998 125.776 101.366 125.933 101.716C126.167 102.13 126.476 102.497 126.844 102.799C127.34 103.252 127.843 103.694 128.355 104.123C129.066 104.801 129.993 105.21 130.976 105.28C133.2 105.69 135.462 106.28 137.338 107.722C137.317 107.706 137.33 106.074 137.298 105.887C137.212 105.393 137.145 104.903 136.821 104.569C136.094 103.819 134.895 103.598 134.009 103.207Z" fill="#FBBEBE"/>
<path opacity="0.1" d="M134.009 103.207C132.024 102.338 130.434 100.77 129.547 98.8049C129.359 98.3826 129.206 97.9416 129.026 97.5153C128.438 96.099 127.525 94.8393 126.359 93.8371C126.067 93.5914 125.725 93.3569 125.369 93.4212C125.027 93.4829 124.758 93.8188 124.641 94.1956C124.541 94.5835 124.516 94.9869 124.567 95.3841C124.667 96.3204 124.829 97.2491 125.052 98.1641L125.595 100.62C125.662 100.998 125.776 101.366 125.933 101.716C126.167 102.13 126.476 102.497 126.844 102.799C127.34 103.252 127.843 103.694 128.355 104.123C129.066 104.801 129.993 105.21 130.976 105.28C133.2 105.69 135.462 106.28 137.338 107.722C137.317 107.706 137.33 106.074 137.298 105.887C137.212 105.393 137.145 104.903 136.821 104.569C136.094 103.819 134.895 103.598 134.009 103.207Z" fill="black"/>
<path d="M156.815 84.4075C158.32 84.4075 159.539 83.1897 159.539 81.6875C159.539 80.1852 158.32 78.9674 156.815 78.9674C155.311 78.9674 154.092 80.1852 154.092 81.6875C154.092 83.1897 155.311 84.4075 156.815 84.4075Z" fill="#2F2E41"/>
<path d="M155.13 80.0441C154.39 79.9627 153.569 79.9023 152.977 80.3515C152.662 80.6276 152.411 80.9673 152.24 81.3478C151.67 82.4097 151.109 83.4918 150.822 84.6619C150.579 85.6547 150.539 86.6928 150.238 87.6696C149.679 89.4816 148.248 91.011 148.085 92.8999C148.011 93.7451 148.154 94.7347 147.533 95.3138C147.38 95.4419 147.216 95.5572 147.044 95.6586C146.613 95.945 146.248 96.318 145.972 96.7535C145.739 97.1203 145.56 97.5416 145.21 97.7991C144.656 98.2069 143.737 98.1654 143.464 98.7961C143.183 99.4442 143.895 100.166 143.73 100.852C143.596 101.412 142.968 101.668 142.536 102.048C141.982 102.535 141.729 103.269 141.498 103.969C140.587 104.14 139.649 104.113 138.75 103.891C137.85 103.668 137.009 103.254 136.286 102.678C137.046 104.538 137.063 106.591 137.096 108.599C137.107 109.251 137.086 109.982 136.618 110.436C138.786 110.482 140.901 111.066 143.017 111.541C143.942 111.748 144.946 111.928 145.808 111.536C146.292 111.278 146.725 110.936 147.087 110.526C148.238 109.366 149.445 108.101 149.727 106.493C149.885 105.592 149.732 104.667 149.774 103.753C149.825 102.621 150.174 101.527 150.473 100.433C151.083 98.1945 151.493 95.9066 151.696 93.5962C151.821 92.1705 153.061 91.023 153.714 89.7488C154.946 87.3434 156.205 84.8382 156.298 82.1379C156.329 81.2348 156.029 80.1432 155.13 80.0441Z" fill="#2F2E41"/>
<path opacity="0.1" d="M155.13 80.0441C154.39 79.9627 153.569 79.9023 152.977 80.3515C152.662 80.6276 152.411 80.9673 152.24 81.3478C151.67 82.4097 151.109 83.4918 150.822 84.6619C150.579 85.6547 150.539 86.6928 150.238 87.6696C149.679 89.4816 148.248 91.011 148.085 92.8999C148.011 93.7451 148.154 94.7347 147.533 95.3138C147.38 95.4419 147.216 95.5572 147.044 95.6586C146.613 95.945 146.248 96.318 145.972 96.7535C145.739 97.1203 145.56 97.5416 145.21 97.7991C144.656 98.2069 143.737 98.1654 143.464 98.7961C143.183 99.4442 143.895 100.166 143.73 100.852C143.596 101.412 142.968 101.668 142.536 102.048C141.982 102.535 141.729 103.269 141.498 103.969C140.587 104.14 139.649 104.113 138.75 103.891C137.85 103.668 137.009 103.254 136.286 102.678C137.046 104.538 137.063 106.591 137.096 108.599C137.107 109.251 137.086 109.982 136.618 110.436C138.786 110.482 140.901 111.066 143.017 111.541C143.942 111.748 144.946 111.928 145.808 111.536C146.292 111.278 146.725 110.936 147.087 110.526C148.238 109.366 149.445 108.101 149.727 106.493C149.885 105.592 149.732 104.667 149.774 103.753C149.825 102.621 150.174 101.527 150.473 100.433C151.083 98.1945 151.493 95.9066 151.696 93.5962C151.821 92.1705 153.061 91.023 153.714 89.7488C154.946 87.3434 156.205 84.8382 156.298 82.1379C156.329 81.2348 156.029 80.1432 155.13 80.0441Z" fill="black"/>
<path d="M152.579 123.393C150.246 122.291 148.54 120.236 146.654 118.477C143.054 115.12 138.651 112.743 134.866 109.595C132.357 107.508 130.113 105.079 127.356 103.332C124.927 101.796 122.175 100.838 119.312 100.533C118.984 100.477 118.648 100.494 118.327 100.581C117.965 100.74 117.65 100.988 117.412 101.301C116.19 102.67 115.104 104.153 114.17 105.729C109.372 113.818 102.557 120.62 96.9104 128.143C96.7301 128.32 96.6231 128.558 96.6106 128.809C96.5981 129.06 96.681 129.307 96.843 129.501L97.9915 131.737C98.6342 132.987 99.6639 134.444 101.049 134.196C101.683 134.082 102.187 133.619 102.653 133.177L107.809 128.282L113.215 123.149C116.383 120.142 119.604 117.065 121.669 113.218C123.283 115.998 126.146 117.817 128.11 120.362C128.857 121.33 129.468 122.395 130.135 123.419C131.204 125.062 132.42 126.603 133.634 128.142L139.835 136.003C140.68 137.076 141.55 138.169 142.706 138.896C144.175 139.82 145.961 140.063 147.689 140.217C150.019 140.424 152.358 140.508 154.696 140.468C156.479 140.438 158.318 140.322 159.917 139.535C161.517 138.749 162.831 137.135 162.748 135.356C162.705 134.431 162.3 133.563 161.854 132.751C159.639 128.715 156.745 125.362 152.579 123.393Z" fill="#2F2E41"/>
<path d="M158.492 85.663C159.649 85.663 160.587 84.7262 160.587 83.5706C160.587 82.4151 159.649 81.4783 158.492 81.4783C157.335 81.4783 156.396 82.4151 156.396 83.5706C156.396 84.7262 157.335 85.663 158.492 85.663Z" fill="#2F2E41"/>
<path d="M158.028 81.9985C158.539 82.8942 158.539 84.0091 158.258 85.0009C157.977 85.9927 157.441 86.8898 156.91 87.7738C156.387 88.6438 155.859 89.5217 155.158 90.256C158.392 90.4098 161.527 89.1499 164.381 87.6233C166.677 86.3952 168.968 84.8791 170.193 82.5838C169.477 82.7977 168.687 82.5866 168.053 82.1908C167.437 81.7644 166.885 81.2535 166.413 80.6735L164.789 78.8595C164.408 78.4645 164.073 78.0278 163.79 77.5577C163.439 76.9147 163.29 76.1817 163.362 75.4535C162.717 76.124 161.996 76.7182 161.213 77.2241C160.054 77.9737 158.776 78.5175 157.613 79.2627C157.201 79.527 156.285 79.952 156.521 80.4869C156.751 81.0085 157.702 81.4253 158.028 81.9985Z" fill="#FBBEBE"/>
<path opacity="0.1" d="M158.028 81.9985C158.539 82.8942 158.539 84.0091 158.258 85.0009C157.977 85.9927 157.441 86.8898 156.91 87.7738C156.387 88.6438 155.859 89.5217 155.158 90.256C158.392 90.4098 161.527 89.1499 164.381 87.6233C166.677 86.3952 168.968 84.8791 170.193 82.5838C169.477 82.7977 168.687 82.5866 168.053 82.1908C167.437 81.7644 166.885 81.2535 166.413 80.6735L164.789 78.8595C164.408 78.4645 164.073 78.0278 163.79 77.5577C163.439 76.9147 163.29 76.1817 163.362 75.4535C162.717 76.124 161.996 76.7182 161.213 77.2241C160.054 77.9737 158.776 78.5175 157.613 79.2627C157.201 79.527 156.285 79.952 156.521 80.4869C156.751 81.0085 157.702 81.4253 158.028 81.9985Z" fill="black"/>
<path d="M158.073 82.3152C157.465 83.3303 157.335 84.5289 158.073 85.4538C158.164 85.5689 158.506 86.2833 158.653 86.2899C158.796 86.2781 158.928 86.2116 159.022 86.1044C159.807 85.3913 160.383 84.4819 161.073 83.6764C161.763 82.871 162.633 82.1369 163.682 81.9746C164.948 81.7788 166.17 82.4451 167.278 83.0878C167.738 83.355 168.216 83.6379 168.506 84.084C168.739 84.5028 168.877 84.9674 168.909 85.4449C169.292 88.3083 169.283 91.2077 169.274 94.0964C169.267 96.1845 169.259 98.2874 168.862 100.337C168.656 101.397 168.348 102.437 168.202 103.506C168.094 104.45 168.051 105.4 168.071 106.35L168.068 110.325C168.042 111.055 168.094 111.786 168.224 112.505C168.414 113.376 168.829 114.181 169.106 115.028C169.392 116.002 169.588 117 169.691 118.01L170.239 122.126C170.411 123.423 170.539 124.841 169.749 125.885C169.393 126.357 168.924 126.734 168.562 127.202C167.207 128.955 167.642 131.455 167.076 133.596C166.63 135.164 165.713 136.56 164.448 137.597C163.48 138.414 162.23 139.057 160.983 138.827C159.3 138.517 158.289 136.774 157.83 135.128C157.372 133.481 157.204 131.689 156.21 130.297C155.398 129.162 154.141 128.447 153.003 127.636C151.866 126.825 150.755 125.78 150.507 124.407C150.399 123.807 150.467 123.189 150.402 122.583C150.312 121.815 150.015 121.085 149.544 120.47C149.072 119.855 148.443 119.377 147.721 119.086C146.86 118.753 145.796 118.634 145.311 117.849C146.563 117.148 147.395 115.853 147.833 114.487C148.271 113.121 148.36 111.672 148.446 110.241L148.734 105.457C148.863 103.319 148.921 101.2 149.869 99.2794C150.293 98.4206 150.82 97.6166 151.261 96.7666C151.845 95.5739 152.343 94.3419 152.752 93.0797C153.439 91.1196 154.127 89.1589 154.739 87.1743C155.031 86.2286 155.312 85.2648 155.832 84.4226C156.352 83.5804 157.099 82.4971 158.073 82.3152Z" fill="#00B0FF"/>
<path d="M147.377 113.393L148.651 113.439L148.923 111.526C148.958 111.143 149.049 110.768 149.192 110.411C149.403 110.033 149.648 109.676 149.925 109.344C151.18 107.584 151.088 105.247 151.399 103.109C151.813 100.258 153.013 97.5882 154.199 94.9616L156.673 89.4847C157.167 88.5549 157.403 87.5117 157.357 86.4616C157.379 85.6149 157.632 82.5342 157.654 81.6875C157.662 81.3742 156.958 81.5483 156.816 81.269C156.505 80.661 156.081 82.31 155.501 82.6718C154.922 83.0336 154.602 83.689 154.356 84.3257C153.823 85.7054 153.497 87.1563 153 88.5495C152.503 89.9426 151.808 91.3113 150.691 92.2813C150.183 92.7221 149.597 93.0717 149.118 93.5429C147.578 95.0546 147.429 97.4419 147.374 99.5972C147.342 100.879 147.093 113.393 147.377 113.393Z" fill="#2F2E41"/>
<path d="M165.725 80.0312C164.487 80.5146 163.809 81.848 163.461 83.1291C163.113 84.4102 162.971 85.7756 162.306 86.925C160.752 89.6117 156.789 90.3947 155.692 93.2979C155.334 94.2479 155.349 95.2902 155.252 96.3009C155.054 98.3812 154.365 100.391 154.161 102.471C154.004 104.082 154.14 105.706 154.276 107.319L155.661 123.726C155.861 126.096 155.856 128.642 155.246 130.941C156.648 131.213 158.106 130.849 159.407 130.26C160.708 129.671 161.896 128.862 163.148 128.176C165.301 126.996 167.676 126.16 169.562 124.588C169.903 124.324 170.195 124.003 170.426 123.64C170.803 122.991 170.834 122.206 171.014 121.478C171.177 120.896 171.385 120.328 171.635 119.778C172.325 118.125 172.927 116.436 173.437 114.72C173.787 113.581 174.064 112.42 174.265 111.246C174.416 110.311 174.498 109.366 174.58 108.422C174.68 106.945 174.976 105.486 175.459 104.085C176.664 100.744 177.346 97.2393 177.482 93.6929C177.522 93.1806 177.487 92.6651 177.378 92.163C177.213 91.5402 176.843 90.9958 176.54 90.4276C175.964 89.3508 175.618 88.1657 175.075 87.0723C173.848 84.6014 171.68 82.728 169.409 81.1579C168.294 80.3868 166.988 79.5379 165.725 80.0312Z" fill="#2F2E41"/>
<path d="M136.768 106.797C135.81 106.243 134.852 105.646 134.13 104.806C133.785 104.404 133.499 103.953 133.148 103.556C132.293 102.59 131.082 101.991 129.83 101.678C128.578 101.365 127.276 101.317 125.985 101.306C125.121 101.299 124.237 101.311 123.428 101.614C122.62 101.918 121.891 102.571 121.734 103.419C121.546 104.44 122.218 105.434 123.024 106.089C123.774 106.697 124.656 107.122 125.601 107.331C126.372 107.465 127.149 107.556 127.931 107.602C132.517 108.079 136.608 110.559 140.627 112.816C144.157 114.799 147.755 116.653 151.422 118.377C151.568 117.287 151.628 116.186 151.603 115.086C151.585 114.265 151.544 113.012 150.763 112.53C149.852 111.968 148.354 111.839 147.327 111.505C144.964 110.735 142.656 109.808 140.419 108.729C139.178 108.131 137.961 107.487 136.768 106.797Z" fill="#FBBEBE"/>
<path d="M156.815 81.0598C161.328 81.0598 164.986 77.4064 164.986 72.8996C164.986 68.3928 161.328 64.7394 156.815 64.7394C152.303 64.7394 148.644 68.3928 148.644 72.8996C148.644 77.4064 152.303 81.0598 156.815 81.0598Z" fill="#FBBEBE"/>
<path d="M168.061 89.2829C167.331 90.1282 166.966 91.2167 166.476 92.2196C165.467 94.2832 163.884 96.0544 163.092 98.2102C162.256 100.485 162.284 103.19 160.645 104.976C160.36 105.287 160.016 105.586 159.933 106C159.885 106.245 159.935 106.507 159.85 106.742C159.615 107.391 158.546 107.424 158.346 108.085C158.288 108.278 158.321 108.492 158.248 108.681C158.084 109.108 157.516 109.173 157.136 109.429C156.343 109.963 156.503 111.206 155.937 111.976C155.489 112.586 154.645 112.79 153.895 112.686C153.146 112.583 152.459 112.227 151.776 111.901C151.542 111.769 151.282 111.688 151.014 111.663C150.697 111.674 150.391 111.777 150.134 111.961C148.624 112.914 147.916 114.802 147.926 116.586C147.937 118.369 148.554 120.088 149.186 121.756C149.272 122.037 149.413 122.299 149.602 122.526C150.103 123.051 150.974 122.966 151.639 122.674C152.303 122.382 152.907 121.922 153.622 121.793C154.886 121.566 156.122 122.429 157.405 122.358C158.344 122.305 159.176 121.763 159.957 121.238C161.203 120.4 162.472 119.541 163.388 118.352C163.949 117.624 164.36 116.794 164.85 116.016C165.478 115.061 166.168 114.147 166.913 113.278L171.625 107.55C172.757 106.326 173.536 104.822 173.881 103.196C174.329 101.669 174.78 100.125 174.858 98.536C174.922 97.2282 174.731 95.9222 174.516 94.6305C174.304 93.359 174.063 92.0733 173.501 90.9132C172.477 88.8017 169.985 87.0544 168.061 89.2829Z" fill="#2F2E41"/>
<path d="M170.804 65.4421C176.499 65.4421 181.116 60.8568 181.116 55.2005C181.116 49.5442 176.499 44.9588 170.804 44.9588C165.109 44.9588 160.492 49.5442 160.492 55.2005C160.492 60.8568 165.109 65.4421 170.804 65.4421Z" fill="#2F2E41"/>
<path d="M179.698 63.6813C178.364 64.6393 176.818 65.266 175.189 65.5089C173.561 65.7518 171.897 65.6037 170.338 65.0772C168.779 64.5507 167.369 63.661 166.228 62.4825C165.086 61.304 164.244 59.8711 163.774 58.3035C163.952 59.7083 164.421 61.0612 165.152 62.2768C165.883 63.4924 166.86 64.5443 168.021 65.3661C169.181 66.1878 170.501 66.7617 171.897 67.0513C173.292 67.3409 174.733 67.3401 176.128 67.0488C177.523 66.7575 178.842 66.1821 180.002 65.359C181.161 64.5358 182.137 63.4828 182.866 62.2663C183.596 61.0499 184.063 59.6964 184.239 58.2915C184.416 56.8865 184.297 55.4605 183.89 54.1035C184.121 55.9266 183.854 57.7779 183.116 59.4631C182.379 61.1482 181.198 62.6053 179.698 63.6813Z" fill="#2F2E41"/>
<path d="M162.383 77.9028C166.559 77.9028 169.945 74.5402 169.945 70.3923C169.945 66.2443 166.559 62.8817 162.383 62.8817C158.206 62.8817 154.821 66.2443 154.821 70.3923C154.821 74.5402 158.206 77.9028 162.383 77.9028Z" fill="#2F2E41"/>
<path d="M156.024 72.782C159.726 72.782 162.726 70.4511 162.726 67.5758C162.726 64.7005 159.726 62.3696 156.024 62.3696C152.322 62.3696 149.321 64.7005 149.321 67.5758C149.321 70.4511 152.322 72.782 156.024 72.782Z" fill="#2F2E41"/>
<path d="M158.599 76.9469C159.049 76.5829 158.969 75.7436 158.419 75.0722C157.87 74.4008 157.059 74.1516 156.608 74.5156C156.157 74.8796 156.238 75.7189 156.787 76.3903C157.337 77.0617 158.148 77.3109 158.599 76.9469Z" fill="#FBBEBE"/>
<path d="M150.244 142.181C150.244 145.82 148.066 147.09 145.379 147.09C145.317 147.09 145.255 147.089 145.193 147.088C145.069 147.085 144.945 147.079 144.823 147.071C142.398 146.901 140.515 145.565 140.515 142.181C140.515 138.68 145.02 134.261 145.359 133.934L145.36 133.933C145.373 133.92 145.379 133.914 145.379 133.914C145.379 133.914 150.244 138.543 150.244 142.181Z" fill="#00B0FF"/>
<path d="M145.202 146.533L146.981 144.065L145.197 146.805L145.193 147.088C145.069 147.085 144.945 147.079 144.823 147.071L145.015 143.431L145.013 143.403L145.017 143.398L145.035 143.054L143.247 140.307L145.04 142.796L145.045 142.869L145.189 140.118L143.659 137.28L145.208 139.636L145.359 133.934L145.36 133.914V133.933L145.334 138.43L146.858 136.647L145.328 138.817L145.288 141.279L146.711 138.916L145.282 141.642L145.26 143.011L147.325 139.721L145.252 143.488L145.202 146.533Z" fill="#3F3D56"/>
</g>
<defs>
<linearGradient id="paint0_linear_28_66" x1="134.081" y1="120.09" x2="134.081" y2="109.318" gradientUnits="userSpaceOnUse">
<stop stop-color="#808080" stop-opacity="0.25"/>
<stop offset="0.53514" stop-color="#808080" stop-opacity="0.12"/>
<stop offset="1" stop-color="#808080" stop-opacity="0.1"/>
</linearGradient>
<clipPath id="clip0_28_66">
<rect width="250" height="150" fill="white"/>
</clipPath>
</defs>
</svg>
